<svg width="1526" height="348" viewBox="0 0 1526 348" fill="none" xmlns="http://www.w3.org/2000/svg">
<path d="M0 347.751V0.000103027C156.363 20.0891 344.583 88.2856 580.078 173.028C588.42 176.038 596.721 178.922 604.952 181.709C1062.98 337.313 1367.03 185.03 1526 35.4117V347.751L0 347.751Z" fill="#5D378C"/>
<path d="M0 34.5652V-0.000209495C156.363 20.105 344.583 88.357 580.078 173.168C588.42 176.181 596.721 179.067 604.952 181.86C1062.98 337.591 1367.03 185.184 1526 35.444V39.7728C1364.17 192.176 1051.99 377.613 580.078 207.734C344.583 122.922 156.363 54.6704 0 34.5652Z" fill="#E72F84"/>
</svg>
