<svg width="700" height="705" viewBox="0 0 700 705" fill="none" xmlns="http://www.w3.org/2000/svg">
<path d="M700 349.998C700 543.299 543.298 699.998 350 699.998C156.701 699.998 0 543.299 0 349.998C0 156.699 156.701 0.00012207 350 0.00012207C543.298 0.00012207 700 156.699 700 349.998Z" fill="#5D378C"/>
<path d="M638.98 701.025H61.5681C53.2315 701.025 46.4737 694.268 46.4737 685.931C46.4737 677.596 53.2315 670.837 61.5681 670.837H638.98C647.315 670.837 654.074 677.596 654.074 685.931C654.074 694.268 647.315 701.025 638.98 701.025Z" fill="#FF9F40"/>
<path d="M638.98 697.615H61.5683C57.5312 697.615 53.9653 695.556 51.8655 692.433C52.0315 691.141 52.3613 689.897 52.8336 688.725C54.0593 689.048 55.347 689.222 56.6758 689.222H634.086C640.43 689.222 645.847 685.307 648.074 679.763C648.416 679.852 648.75 679.954 649.079 680.064C650.085 681.789 650.661 683.795 650.661 685.931C650.661 692.375 645.421 697.615 638.98 697.615Z" fill="#C36F50"/>
<path d="M52.8337 688.724C51.8501 688.464 50.9065 688.107 50.0123 687.664C49.9282 687.098 49.8844 686.519 49.8844 685.931C49.8844 679.49 55.1267 674.247 61.5684 674.247H198.612H213.602H484.819H498.981H638.98C642.821 674.247 646.234 676.112 648.365 678.982C648.276 679.245 648.179 679.505 648.074 679.762C646.851 679.441 645.569 679.27 644.246 679.27H66.8385C62.6769 679.27 58.8952 680.963 56.1574 683.685C54.7387 685.112 53.5994 686.823 52.8337 688.724Z" fill="#FFD4A9"/>
<path d="M51.8655 692.433C50.9206 691.029 50.2726 689.408 50.0121 687.665C50.9063 688.108 51.8499 688.465 52.8335 688.725C52.3612 689.897 52.0314 691.141 51.8655 692.433ZM649.078 680.064C648.75 679.954 648.416 679.852 648.074 679.763C648.179 679.506 648.276 679.246 648.365 678.983C648.622 679.33 648.859 679.689 649.078 680.064Z" fill="#E4BEB0"/>
<path d="M61.5683 674.247C55.1265 674.247 49.8843 679.49 49.8843 685.931C49.8843 692.374 55.1265 697.615 61.5683 697.615H638.98C645.421 697.615 650.661 692.374 650.661 685.931C650.661 679.49 645.421 674.247 638.98 674.247H61.5683ZM638.98 704.438H61.5683C51.3641 704.438 43.0617 696.137 43.0617 685.931C43.0617 675.728 51.3641 667.426 61.5683 667.426H638.98C649.183 667.426 657.485 675.728 657.485 685.931C657.485 696.137 649.183 704.438 638.98 704.438Z" fill="#390075"/>
<path d="M607.621 604.244V640.199C607.621 640.821 607.603 641.458 607.568 642.08C607.517 642.89 607.43 643.719 607.328 644.514H607.31C606.551 649.969 604.323 654.975 601.043 659.116C600.872 659.376 600.663 659.634 600.456 659.876C594.846 666.574 586.407 670.836 576.981 670.836C560.067 670.836 546.344 657.116 546.344 640.199V604.244C546.344 601.466 548.605 599.203 551.386 599.203H602.58C605.358 599.203 607.621 601.466 607.621 604.244Z" fill="#F7C414"/>
<path d="M551.383 599.825C548.946 599.825 546.963 601.808 546.963 604.245V640.199C546.963 656.751 560.429 670.217 576.981 670.217C585.882 670.217 594.265 666.304 599.982 659.479C600.176 659.252 600.37 659.012 600.528 658.773C603.849 654.575 605.972 649.627 606.696 644.428L606.777 643.895C606.851 643.281 606.91 642.656 606.951 642.042C606.984 641.435 606.999 640.808 606.999 640.199V604.245C606.999 601.808 605.016 599.825 602.579 599.825H551.383ZM576.981 671.458C559.746 671.458 545.724 657.434 545.724 640.199V604.245C545.724 601.122 548.263 598.584 551.383 598.584H602.579C605.699 598.584 608.241 601.122 608.241 604.245V640.199C608.241 640.831 608.223 641.481 608.19 642.116C608.136 642.947 608.047 643.788 607.942 644.593L607.845 645.134C607.025 650.356 604.845 655.314 601.529 659.502C601.374 659.739 601.152 660.019 600.928 660.279C594.979 667.383 586.249 671.458 576.981 671.458Z" fill="#390075"/>
<path d="M569.985 670.669C568.932 670.559 567.892 670.396 566.873 670.182C567.117 670.131 567.36 670.077 567.599 670.019C568.382 670.266 569.179 670.483 569.985 670.669Z" fill="#390075"/>
<path d="M580.389 669.998C578.172 669.465 576.051 668.695 574.05 667.712C577.909 665.815 581.312 663.136 584.047 659.876C584.256 659.634 584.463 659.377 584.636 659.117C587.914 654.975 590.141 649.969 590.901 644.514H590.919C591.021 643.719 591.107 642.891 591.158 642.08C591.194 641.458 591.212 640.821 591.212 640.199V604.245C591.212 602.341 590.152 600.681 588.589 599.825H601.26C602.819 600.681 603.88 602.341 603.88 604.245V640.199C603.88 640.821 603.864 641.458 603.829 642.08C603.778 642.891 603.691 643.719 603.587 644.514H603.569C602.812 649.969 600.584 654.975 597.304 659.117C597.13 659.377 596.924 659.634 596.717 659.876C592.573 664.824 586.881 668.446 580.389 669.998Z" fill="#BE8931"/>
<path d="M573.242 670.836C572.146 670.836 571.058 670.78 569.985 670.668C569.179 670.482 568.382 670.265 567.599 670.018C567.992 669.926 568.379 669.827 568.764 669.72C570.803 670.288 572.926 670.65 575.113 670.78C574.494 670.818 573.869 670.836 573.242 670.836ZM601.259 599.825H588.589C587.873 599.43 587.047 599.203 586.17 599.203H598.84C599.717 599.203 600.541 599.43 601.259 599.825Z" fill="#390075"/>
<path d="M584.006 588.74C584.225 588.052 584.184 587.318 584.2 586.602C584.202 585.883 584.177 585.161 584.149 584.443C584.088 583 583.991 581.56 583.881 580.12L583.552 575.804L583.463 574.724L583.417 574.186L583.348 573.707C583.249 573.077 583.071 572.465 582.793 571.902C581.73 569.626 579.385 568.122 577.027 568.115H576.586L576.049 568.137L574.965 568.186L572.799 568.283L568.463 568.476L551.128 569.096L548.962 569.172L547.878 569.211C547.812 569.213 547.741 569.213 547.667 569.213C547.341 569.213 546.958 569.195 546.622 569.188C544.899 569.101 543.173 568.752 541.547 568.115C538.315 566.81 535.478 564.465 533.681 561.414C532.781 559.894 532.124 558.222 531.747 556.484C531.362 554.741 531.318 552.946 531.512 551.17C531.892 547.594 533.628 544.209 536.143 541.637C538.685 539.075 542.11 537.35 545.737 536.899C546.189 536.822 546.642 536.822 547.096 536.786L547.761 536.753L548.304 536.748L550.471 536.72L554.804 536.664L572.141 536.514L589.476 536.463L606.811 536.509L611.144 536.542L612.227 536.549L612.77 536.554C612.852 536.554 612.938 536.554 613.017 536.554C613.109 536.554 613.193 536.554 613.247 536.549C613.496 536.532 613.746 536.537 613.994 536.514C614.238 536.475 614.483 536.44 614.73 536.412C616.675 536.037 618.464 534.893 619.672 533.287C620.888 531.686 621.459 529.634 621.271 527.59C621.095 525.566 620.111 523.622 618.576 522.225C617.812 521.526 616.915 520.971 615.943 520.599C615.706 520.489 615.457 520.418 615.204 520.351L614.827 520.242L614.442 520.175C614.185 520.127 613.927 520.071 613.662 520.068C613.379 520.056 613.191 520.012 612.785 520.012L604.117 519.791C598.338 519.63 592.56 519.525 586.782 519.319L578.113 519.013L573.78 518.86L573.237 518.84L572.564 518.791C572.113 518.771 571.67 518.656 571.226 518.575C570.349 518.353 569.503 518.029 568.726 517.581C567.176 516.676 565.901 515.358 565.083 513.801C564.265 512.254 563.883 510.477 564.031 508.772C564.143 507.056 564.775 505.402 565.764 504.044C566.274 503.376 566.857 502.769 567.517 502.262C568.19 501.775 568.909 501.355 569.679 501.064C570.449 500.786 571.244 500.567 572.054 500.519C572.246 500.493 572.437 500.488 572.63 500.488C572.717 500.488 572.806 500.488 572.896 500.491C572.985 500.491 573.074 500.493 573.163 500.493C573.194 500.493 573.227 500.493 573.258 500.493L574.341 500.552C574.738 500.575 575.095 500.592 575.439 500.592C575.75 500.592 576.054 500.577 576.37 500.539C577.017 500.434 577.672 500.284 578.281 500.004C579.512 499.479 580.626 498.592 581.411 497.442C581.817 496.874 582.135 496.239 582.354 495.566C582.604 494.898 582.709 494.185 582.772 493.463C582.887 494.898 582.635 496.423 581.916 497.745C581.233 499.084 580.137 500.233 578.801 501.021C578.136 501.431 577.389 501.688 576.63 501.895C575.875 502.084 575.032 502.137 574.341 502.17L573.258 502.229C572.931 502.275 572.615 502.277 572.302 502.359C571.672 502.461 571.081 502.706 570.523 502.976C569.964 503.261 569.465 503.641 569.009 504.051C568.57 504.482 568.18 504.956 567.859 505.468C567.245 506.514 566.916 507.696 566.952 508.876C566.969 511.242 568.44 513.406 570.461 514.308C570.966 514.532 571.489 514.688 572.021 514.787C572.261 514.802 572.495 514.853 572.735 514.853C572.766 514.853 572.796 514.853 572.829 514.851L573.237 514.853L573.78 514.836L578.113 514.683L586.782 514.374C592.56 514.168 598.338 514.066 604.117 513.905L612.785 513.683C612.869 513.678 612.969 513.676 613.076 513.676C613.377 513.676 613.751 513.691 614.073 513.704C614.531 513.706 614.988 513.77 615.444 513.836L616.127 513.938L616.8 514.096C617.251 514.198 617.697 514.318 618.13 514.481C619.881 515.078 621.518 516.006 622.935 517.198C625.772 519.574 627.729 523.066 628.158 526.803C628.624 530.503 627.666 534.416 625.466 537.485C623.302 540.574 619.922 542.792 616.198 543.579L614.791 543.803C614.322 543.854 613.848 543.87 613.374 543.895C613.117 543.911 612.948 543.911 612.77 543.911L612.227 543.916L611.144 543.923L606.811 543.959L589.476 544.002L572.141 543.951L554.804 543.801L550.471 543.745L548.304 543.719L547.761 543.712L547.343 543.727C547.078 543.745 546.805 543.722 546.543 543.765C544.427 543.984 542.373 544.892 540.782 546.375C539.22 547.869 538.086 549.86 537.757 552.036C537.584 553.12 537.535 554.251 537.721 555.347C537.905 556.441 538.256 557.511 538.776 558.508C539.809 560.511 541.575 562.132 543.645 563.111C544.69 563.583 545.816 563.873 546.971 563.993C547.277 564.011 547.516 564.049 547.878 564.062L548.962 564.1L551.128 564.174L568.463 564.793L572.799 564.987L574.965 565.084L576.049 565.132L576.594 565.158L577.236 565.214C578.939 565.397 580.58 566.068 581.888 567.123C582.548 567.643 583.134 568.25 583.603 568.935C584.085 569.611 584.465 570.355 584.725 571.135C585.003 571.907 585.145 572.72 585.184 573.526L585.202 574.127L585.189 574.67L585.163 575.759C585.122 577.209 585.082 578.657 585.015 580.107C584.942 581.557 584.855 583.005 584.735 584.453C584.669 585.177 584.608 585.901 584.508 586.622C584.391 587.336 584.325 588.082 584.006 588.74Z" fill="#F1D7FF"/>
<path d="M580.17 670.049C580.244 670.034 580.318 670.016 580.389 669.998C580.417 670.003 580.443 670.011 580.468 670.016C580.369 670.029 580.27 670.039 580.17 670.049ZM569.913 669.379C556.761 666.193 546.963 654.318 546.963 640.199V604.245C546.963 601.808 548.946 599.825 551.383 599.825H559.529C557.967 600.682 556.907 602.341 556.907 604.245V640.199C556.907 652.273 563.896 662.716 574.05 667.712C572.722 668.362 571.341 668.92 569.913 669.379Z" fill="#FDEDB8"/>
<path d="M576.981 670.836C576.354 670.836 575.73 670.818 575.113 670.78C576.841 670.676 578.531 670.428 580.17 670.049C580.269 670.038 580.369 670.028 580.468 670.015C581.065 670.158 581.671 670.281 582.28 670.388C580.555 670.681 578.794 670.836 576.981 670.836ZM568.764 669.72C555.836 666.128 546.344 654.269 546.344 640.199V604.244C546.344 601.466 548.605 599.203 551.386 599.203H561.948C561.071 599.203 560.248 599.43 559.529 599.825H551.383C548.946 599.825 546.963 601.808 546.963 604.244V640.199C546.963 654.317 556.761 666.192 569.913 669.378C569.534 669.498 569.151 669.613 568.764 669.72Z" fill="#C3B2D5"/>
<path d="M576.981 670.218C574.55 670.218 572.182 669.927 569.913 669.379C571.341 668.92 572.722 668.362 574.05 667.712C576.051 668.696 578.172 669.466 580.389 669.998C580.318 670.016 580.244 670.034 580.17 670.049C579.117 670.161 578.054 670.218 576.981 670.218Z" fill="#EBDBC1"/>
<path d="M575.113 670.781C572.926 670.651 570.803 670.289 568.764 669.72C569.151 669.613 569.533 669.499 569.913 669.379C572.182 669.927 574.55 670.217 576.981 670.217C578.054 670.217 579.117 670.161 580.17 670.049C578.531 670.429 576.841 670.676 575.113 670.781Z" fill="#C3B2D5"/>
<path d="M633.235 626.736V631.775C633.235 639.042 629.282 645.74 622.897 649.227L608.656 657.34C606.24 658.719 603.617 659.29 601.043 659.117C604.323 654.975 606.551 649.969 607.311 644.514H607.326C607.43 643.719 607.517 642.89 607.568 642.08L616.165 637.178C618.22 636.057 619.428 634.003 619.428 631.775V626.736C619.428 623.369 616.683 620.626 613.316 620.626H607.622V606.816H613.316C624.312 606.816 633.235 615.74 633.235 626.736Z" fill="#F7C414"/>
<path d="M607.846 645.134C607.086 649.954 605.172 654.55 602.274 658.521C604.384 658.465 606.462 657.878 608.35 656.8L622.588 648.687C628.777 645.31 632.616 638.831 632.616 631.775V626.736C632.616 616.095 623.957 607.436 613.316 607.436H608.241V620.007H613.316C617.027 620.007 620.047 623.025 620.047 626.736V631.775C620.047 634.273 618.709 636.496 616.463 637.722L608.164 642.455C608.111 643.171 608.034 643.895 607.943 644.594L607.846 645.134ZM601.932 659.767C601.621 659.767 601.313 659.757 601.002 659.736L599.824 659.657L600.556 658.732C603.849 654.575 605.972 649.628 606.696 644.428L606.778 643.895C606.852 643.281 606.91 642.657 606.951 642.042L606.971 641.708L615.857 636.641C617.707 635.629 618.808 633.812 618.808 631.775V626.736C618.808 623.708 616.344 621.246 613.316 621.246H607V606.198H613.316C624.643 606.198 633.854 615.409 633.854 626.736V631.775C633.854 639.287 629.769 646.182 623.193 649.77L608.965 657.878C606.788 659.12 604.374 659.767 601.932 659.767Z" fill="#390075"/>
<path d="M551.383 602.924C550.657 602.924 550.065 603.518 550.065 604.244V640.199C550.065 655.041 562.139 667.117 576.981 667.117C584.962 667.117 592.478 663.608 597.604 657.488C597.739 657.33 597.852 657.195 597.943 657.06C598.002 656.973 598.06 656.886 598.127 656.807C601.076 653.081 602.977 648.653 603.625 644.002C603.637 643.897 603.658 643.795 603.681 643.693C603.755 643.084 603.816 642.457 603.854 641.843C603.885 641.318 603.897 640.752 603.897 640.199V604.244C603.897 603.518 603.309 602.924 602.58 602.924H551.383ZM576.981 674.557C558.036 674.557 542.623 659.144 542.623 640.199V604.244C542.623 599.414 546.553 595.484 551.383 595.484H602.58C607.41 595.484 611.34 599.414 611.34 604.244V640.199C611.34 640.889 611.325 641.598 611.284 642.289C611.228 643.158 611.139 644.058 611.016 644.993C611.001 645.133 610.973 645.268 610.942 645.401C610.071 651.184 607.693 656.675 604.048 661.316C603.834 661.627 603.581 661.948 603.286 662.295C596.766 670.079 587.169 674.557 576.981 674.557Z" fill="#390075"/>
<path d="M610.942 645.402C610.553 647.984 609.864 650.504 608.896 652.921L621.054 645.993C626.294 643.13 629.514 637.696 629.514 631.775V626.736C629.514 617.805 622.247 610.538 613.315 610.538H611.34V616.905H613.315C618.737 616.905 623.149 621.315 623.149 626.736V631.775C623.149 635.369 621.156 638.69 617.949 640.444L611.098 644.354C611.072 644.565 611.047 644.777 611.016 644.994C611.001 645.134 610.973 645.269 610.942 645.402ZM601.932 662.869C601.555 662.869 601.175 662.856 600.793 662.828C599.414 662.736 598.201 661.888 597.64 660.623C597.082 659.362 597.268 657.891 598.127 656.808C601.076 653.081 602.977 648.654 603.625 644.002C603.637 643.898 603.658 643.796 603.681 643.694C603.755 643.085 603.816 642.458 603.854 641.843C603.936 640.592 604.639 639.468 605.725 638.848L614.322 633.947C615.209 633.46 615.706 632.66 615.706 631.775V626.736C615.706 625.418 614.633 624.348 613.315 624.348H607.619C605.564 624.348 603.897 622.681 603.897 620.627V606.817C603.897 604.762 605.564 603.095 607.619 603.095H613.315C626.353 603.095 636.956 613.701 636.956 626.736V631.775C636.956 640.421 632.251 648.358 624.678 652.492L610.499 660.572C607.856 662.081 604.914 662.869 601.932 662.869Z" fill="#390075"/>
<path d="M105.706 446.682L106.328 449.84L131.263 576.692C131.057 564.788 137.822 554.053 143.788 543.745C146.819 538.53 149.755 532.912 151.542 527.137C153.296 521.521 153.966 515.761 152.61 510.051C151.014 503.302 146.755 497.542 144.201 491.098C134.597 466.879 150.456 438.879 143.579 413.735C140.788 403.539 134.2 394.445 125.375 388.608C123.176 387.155 120.464 385.863 117.989 386.755C113.587 388.351 114.018 394.606 114.815 399.216C117.606 415.443 114.303 432.655 105.706 446.682Z" fill="#30CE52"/>
<path d="M145.262 533.256C144.112 530.175 142.728 527.185 141.117 524.32C138.52 519.709 135.395 515.44 132.372 511.31C128.291 505.733 124.437 500.467 121.843 494.508C118.685 487.259 117.568 478.955 118.692 471.127C118.866 469.919 119.09 468.714 119.314 467.508C119.883 464.437 120.469 461.263 120.341 457.899C120.209 454.488 119.113 450.456 116.579 447.433C117.713 445.3 118.733 443.105 119.633 440.865C120.545 440.972 121.445 441.222 122.314 441.635C126.143 443.47 127.993 447.984 128.169 452.212C128.329 456.441 127.147 460.588 126.54 464.783C125.312 473.335 126.51 482.207 129.956 490.119C134.742 501.112 143.516 509.84 149.404 520.272C149.409 520.28 149.411 520.285 149.414 520.293C148.789 524.654 147.229 529.033 145.262 533.256Z" fill="#32A559"/>
<path d="M112.012 442.688C118.614 429.145 120.93 413.422 118.371 398.6C117.543 393.808 117.862 390.653 119.223 390.158C119.342 390.115 119.508 390.082 119.727 390.082C120.375 390.082 121.501 390.38 123.385 391.626C123.834 391.922 124.275 392.228 124.71 392.544C122.646 395.118 123.036 399.803 123.67 403.461C125.837 415.988 124.366 429.087 119.633 440.865C119.269 440.822 118.904 440.801 118.537 440.801C116.332 440.801 114.084 441.546 112.012 442.688Z" fill="#A2E9B1"/>
<path d="M116.579 447.433C115.481 446.123 114.115 445.002 112.437 444.201C112.119 444.049 111.793 443.911 111.464 443.789C111.65 443.424 111.833 443.054 112.012 442.687C114.084 441.546 116.332 440.801 118.537 440.801C118.904 440.801 119.268 440.822 119.633 440.865C118.733 443.105 117.714 445.3 116.579 447.433Z" fill="#A3D6B4"/>
<path d="M131.256 580.311C129.285 580.311 127.675 578.734 127.641 576.756C127.435 564.6 133.578 554.081 139.517 543.908L140.666 541.933C146.212 532.38 151.552 521.218 149.098 510.88C148.234 507.23 146.439 503.797 144.54 500.162C143.251 497.695 141.918 495.143 140.847 492.439C135.418 478.762 137.549 464.175 139.608 450.067C141.428 437.61 143.144 425.842 140.095 414.699C137.544 405.37 131.452 396.961 123.385 391.626C120.859 389.954 119.697 389.987 119.222 390.158C117.861 390.653 117.543 393.808 118.371 398.6C121.31 415.629 117.816 433.846 108.782 448.578C107.74 450.281 105.512 450.813 103.809 449.771C102.109 448.726 101.574 446.501 102.617 444.798C110.745 431.542 113.89 415.152 111.245 399.828C109.685 390.795 111.54 385.254 116.755 383.36C121.427 381.665 125.906 384.622 127.376 385.596C136.884 391.881 144.061 401.794 147.069 412.789C150.517 425.394 148.608 438.467 146.763 451.112C144.752 464.883 142.853 477.893 147.566 489.77C148.501 492.128 149.692 494.404 150.951 496.813C152.972 500.682 155.062 504.684 156.135 509.208C159.176 522.021 153.184 534.776 146.921 545.565L145.761 547.553C140.322 556.869 134.699 566.499 134.873 576.633C134.906 578.632 133.313 580.278 131.317 580.311H131.256Z" fill="#390075"/>
<path d="M138.836 587.048C148.7 568.298 148.361 544.556 137.964 526.094C132.089 515.659 123.308 506.932 118.527 495.951C115.08 488.037 113.885 479.159 115.114 470.615C115.715 466.423 116.89 462.27 116.727 458.037C116.564 453.806 114.703 449.289 110.883 447.464C106.159 445.211 100.519 447.867 96.6139 451.346C87.5275 459.436 83.1478 471.938 83.1327 484.104C83.1174 496.267 87.0819 508.145 92.5118 519.031C96.4202 526.869 101.25 534.918 100.626 543.656C100.052 551.667 95.0005 558.523 91.3365 565.67C87.672 572.817 85.493 582.039 90.2925 588.478L138.836 587.048Z" fill="#30CE52"/>
<path d="M97.3967 585.483H92.6336C89.0639 579.478 92.7376 570.862 94.5521 567.322C95.3729 565.724 96.2548 564.156 97.1902 562.497C100.407 556.782 103.733 550.874 104.233 543.913C104.852 535.242 100.963 527.634 97.1979 520.278C96.7085 519.319 96.2216 518.366 95.7475 517.415C89.6797 505.252 86.736 494.358 86.7485 484.107C86.7636 472.112 91.3497 460.874 99.0178 454.045C101.08 452.21 104.016 450.439 106.687 450.265C106.236 450.612 105.8 450.971 105.387 451.338C96.3083 459.428 91.9209 471.936 91.9049 484.109C91.8891 496.267 95.8623 508.153 101.286 519.034C105.194 526.866 110.029 534.923 109.407 543.651C108.833 551.659 103.774 558.518 100.106 565.668C96.9888 571.765 94.9446 579.376 97.3967 585.483Z" fill="#A2E9B1"/>
<path d="M90.2953 592.095C89.1926 592.095 88.1035 591.593 87.3944 590.639C82.5281 584.112 82.7919 574.411 88.1185 564.021C89.001 562.298 89.9606 560.596 90.8877 558.949C93.8448 553.699 96.6369 548.741 97.0192 543.399C97.4958 536.738 94.2231 530.341 90.7597 523.568C90.2593 522.59 89.76 521.616 89.2762 520.645C82.6948 507.452 79.5026 495.498 79.5174 484.099C79.535 469.866 84.8889 456.944 94.2078 448.644C100.226 443.287 107.041 441.625 112.437 444.202C117.979 446.845 120.153 453.011 120.341 457.899C120.469 461.264 119.883 464.437 119.314 467.509C119.09 468.714 118.866 469.92 118.692 471.128C117.568 478.956 118.685 487.26 121.843 494.509C124.437 500.468 128.291 505.734 132.372 511.311C135.395 515.44 138.52 519.709 141.117 524.32C152.047 543.733 152.409 569.015 142.035 588.733C141.107 590.497 138.923 591.177 137.151 590.247C135.385 589.319 134.707 587.132 135.637 585.363C144.892 567.766 144.571 545.198 134.814 527.868C132.431 523.635 129.568 519.722 126.538 515.58C122.403 509.932 118.126 504.09 115.21 497.397C111.474 488.809 110.202 479.371 111.535 470.101C111.721 468.793 111.963 467.493 112.203 466.191C112.723 463.387 113.212 460.739 113.115 458.177C113.013 455.526 111.958 451.986 109.325 450.727C106.162 449.218 101.796 451.573 99.0175 454.046C91.3495 460.874 86.7633 472.112 86.7483 484.107C86.7358 494.358 89.6795 505.252 95.7473 517.415C96.2214 518.366 96.7082 519.319 97.1976 520.278C100.962 527.634 104.852 535.242 104.232 543.913C103.733 550.874 100.407 556.783 97.19 562.497C96.2545 564.157 95.3726 565.724 94.5519 567.322C92.6515 571.031 88.7112 580.306 93.1913 586.319C94.3837 587.92 94.0549 590.183 92.4537 591.378C91.805 591.863 91.047 592.095 90.2953 592.095Z" fill="#390075"/>
<path d="M109.201 670.836H123.683C137.898 670.836 149.57 659.596 150.1 645.388L152.055 593.065C152.21 588.923 148.894 585.482 144.75 585.482H88.1349C83.9899 585.482 80.6741 588.923 80.8291 593.065L82.7848 645.388C83.3163 659.596 94.9855 670.836 109.201 670.836Z" fill="#428AF9"/>
<path d="M148.119 586.303C147.112 585.778 145.968 585.482 144.749 585.482H143.625C143.839 585.008 144.048 584.532 144.252 584.055C145.774 584.386 147.115 585.189 148.119 586.303Z" fill="#AB6BD5"/>
<path d="M135.576 585.483H132.362C131.113 584.486 129.53 583.887 127.8 583.887H136.384C136.142 584.384 135.892 584.876 135.637 585.363C135.617 585.404 135.597 585.442 135.576 585.483Z" fill="#33905D"/>
<path d="M143.625 585.483H135.576C135.596 585.442 135.617 585.404 135.637 585.363C135.892 584.876 136.142 584.384 136.384 583.887H142.685C143.222 583.887 143.748 583.946 144.252 584.055C144.048 584.532 143.839 585.009 143.625 585.483Z" fill="#390075"/>
<path d="M121.626 669.241H109.713C109.598 669.2 109.483 669.157 109.369 669.113C122.373 667.831 132.65 657.108 133.144 643.795L135.107 591.465C135.201 589.053 134.11 586.877 132.362 585.482H135.576H143.625H144.749C145.968 585.482 147.112 585.778 148.119 586.303C149.348 587.664 150.069 589.487 149.992 591.465L148.045 643.795C147.505 657.993 135.841 669.241 121.626 669.241Z" fill="#3F60D1"/>
<path d="M109.2 670.836C106.72 670.836 104.322 670.495 102.043 669.855C104.322 670.495 106.723 670.836 109.2 670.836Z" fill="#A68CC1"/>
<path d="M84.5864 654.057C83.5266 651.361 82.896 648.442 82.7793 645.389L81.6476 614.96L82.7849 645.389C82.8991 648.442 83.5281 651.361 84.5864 654.057Z" fill="white"/>
<path d="M118.771 670.836H109.2C106.723 670.836 104.322 670.495 102.043 669.855C94.0652 667.614 87.596 661.719 84.5863 654.057C83.528 651.36 82.8989 648.442 82.7847 645.388L81.6474 614.96L80.8328 593.06C80.673 588.928 83.9916 585.482 88.1399 585.482H97.7127C93.5639 585.482 90.2455 588.928 90.4051 593.06L92.3517 645.388C92.7679 656.285 99.7288 665.44 109.369 669.113C108.566 669.192 107.753 669.235 106.932 669.241H109.713C112.539 670.273 115.593 670.836 118.771 670.836Z" fill="#AACAFC"/>
<path d="M109.713 669.241H106.932C107.753 669.236 108.566 669.192 109.369 669.113C109.483 669.157 109.598 669.2 109.713 669.241Z" fill="#A8B7EA"/>
<path d="M88.1351 589.097C87.122 589.097 86.1761 589.499 85.4741 590.231C84.7711 590.96 84.4051 591.918 84.4423 592.93L86.3976 645.256C86.8594 657.572 96.8767 667.222 109.203 667.222H123.683C136.009 667.222 146.027 657.572 146.488 645.253L148.443 592.933C148.481 591.918 148.114 590.96 147.411 590.231C146.71 589.499 145.764 589.097 144.75 589.097H88.1351ZM123.683 674.453H109.203C92.9691 674.453 79.7779 661.747 79.1718 645.526L77.2165 593.2C77.1034 590.208 78.1861 587.371 80.2645 585.212C82.3441 583.056 85.1382 581.866 88.1351 581.866H144.75C147.747 581.866 150.541 583.056 152.62 585.212C154.7 587.371 155.781 590.208 155.669 593.203L153.714 645.524C153.107 661.747 139.917 674.453 123.683 674.453Z" fill="#390075"/>
<path d="M151.593 609.042L81.2913 605.428L151.593 601.811V609.042Z" fill="#390075"/>
<path d="M109.603 514.398C113.969 518.965 118.384 523.594 121.669 529.201C123.296 532 124.613 535.026 125.411 538.252C126.209 541.464 126.444 544.936 125.896 548.298C124.828 555.029 121.565 560.869 119.786 566.537C118.912 569.346 118.387 572.231 118.46 574.928C118.527 577.63 119.263 580.051 120.67 581.823C121.914 583.39 121.652 585.669 120.084 586.913C118.517 588.159 116.238 587.897 114.994 586.329C114.915 586.23 114.844 586.128 114.777 586.026L114.703 585.911C112.494 582.435 111.864 578.354 112.134 574.76C112.399 571.123 113.398 567.779 114.698 564.656C117.357 558.498 120.89 553.357 122.35 547.592C123.864 541.913 122.658 535.63 120.066 530.037C117.456 524.397 113.518 519.358 109.603 514.398Z" fill="#390075"/>
<path d="M200.009 288.312C199.28 288.312 198.548 288.124 197.888 287.736L170.648 271.834C169.091 270.924 167.322 270.442 165.538 270.442C164.671 270.442 163.807 270.557 162.976 270.781C157.69 272.199 152.223 272.943 146.72 272.989L146.161 272.991C110.977 272.991 81.902 244.385 81.3458 209.224C81.0682 191.705 87.6782 175.186 99.9581 162.709C112.241 150.23 128.648 143.358 146.156 143.358C146.582 143.358 147.005 143.361 147.431 143.369C182.74 144.049 211.244 173.351 210.969 208.688C210.847 224.555 204.921 239.782 194.282 251.568C191.233 254.945 190.744 259.882 193.063 263.856L203.646 281.981C204.61 283.633 204.339 285.725 202.986 287.079C202.175 287.889 201.097 288.312 200.009 288.312Z" fill="white"/>
<path d="M146.162 139.148H146.154C127.509 139.15 110.036 146.468 96.9556 159.758C83.8797 173.045 76.8417 190.635 77.1367 209.29C77.729 246.736 108.693 277.2 146.162 277.2L146.755 277.197C152.615 277.149 158.439 276.356 164.067 274.847C164.544 274.717 165.038 274.653 165.538 274.653C166.578 274.653 167.613 274.936 168.525 275.469L195.765 291.374C197.088 292.146 198.553 292.521 200.006 292.521C202.186 292.521 204.342 291.677 205.963 290.056C208.667 287.349 209.21 283.161 207.281 279.858L196.698 261.733C195.306 259.35 195.592 256.398 197.407 254.387C208.736 241.837 215.047 225.618 215.18 208.722C215.47 171.09 185.116 139.884 147.512 139.161C147.061 139.153 146.613 139.148 146.162 139.148ZM146.156 147.567C146.554 147.567 146.949 147.572 147.349 147.579C180.362 148.214 207.016 175.637 206.758 208.656C206.641 224.076 200.753 238.115 191.157 248.747C186.88 253.485 186.209 260.466 189.429 265.977L200.009 284.102L172.769 268.197C170.557 266.905 168.056 266.234 165.538 266.234C164.315 266.234 163.086 266.392 161.883 266.714C157.03 268.019 151.937 268.735 146.684 268.778C146.508 268.781 146.335 268.781 146.162 268.781C113.276 268.781 86.0765 242.099 85.555 209.158C85.0172 175.237 112.356 147.569 146.156 147.567Z" fill="#390075"/>
<path d="M94.7226 239.101C94.2384 238.635 93.7625 238.166 93.2932 237.684C89.2229 230.463 86.5874 222.338 85.7968 213.692C85.7962 213.684 85.7957 213.679 85.7952 213.671C85.794 213.659 85.7929 213.648 85.7916 213.636C85.6583 212.157 85.5786 210.664 85.5549 209.157C85.0502 177.322 109.096 150.997 139.993 147.877C142.019 147.671 144.074 147.566 146.154 147.566C146.551 147.566 146.949 147.572 147.349 147.579C163.799 147.895 178.665 154.864 189.413 165.862C190.035 166.966 190.624 168.09 191.179 169.232C180.561 159.049 166.269 152.654 150.533 152.353C150.132 152.346 149.732 152.341 149.335 152.341C115.534 152.341 88.1991 180.006 88.7366 213.931C88.8791 222.929 91.0225 231.455 94.7226 239.101Z" fill="white"/>
<path d="M85.7917 213.636C85.6582 212.158 85.5781 210.664 85.5544 209.158C85.05 177.322 109.098 150.995 139.993 147.878C109.096 150.998 85.0502 177.322 85.5549 209.158C85.5786 210.664 85.6584 212.158 85.7917 213.636Z" fill="#9C80BA"/>
<path d="M200.009 284.102L172.769 268.197C170.557 266.904 168.056 266.234 165.538 266.234C164.314 266.234 163.086 266.392 161.883 266.713C157.03 268.018 151.937 268.734 146.684 268.778C146.508 268.78 146.335 268.78 146.161 268.78C140.635 268.78 135.275 268.028 130.172 266.621C130.17 266.619 130.17 266.619 130.167 266.619C130.111 266.604 130.055 266.588 129.999 266.573C129.994 266.57 129.989 266.568 129.984 266.568C129.961 266.56 129.935 266.555 129.912 266.547C129.91 266.547 129.905 266.545 129.9 266.545C129.877 266.537 129.849 266.53 129.826 266.522C129.815 266.519 129.805 266.517 129.795 266.514C129.78 266.512 129.764 266.507 129.749 266.502C129.736 266.499 129.726 266.497 129.714 266.491C129.698 266.486 129.683 266.484 129.665 266.479C129.647 266.474 129.624 266.466 129.604 266.461C129.596 266.458 129.589 266.456 129.578 266.453C114.079 262.003 101.031 251.486 93.2576 237.648C93.269 237.659 93.2818 237.671 93.2933 237.684C94.5162 239.853 95.8697 241.943 97.3378 243.939C96.3973 242.369 95.523 240.756 94.7227 239.101C105.647 249.585 120.441 256.051 136.616 256.054C136.789 256.054 136.96 256.051 137.136 256.051C142.389 256.005 147.484 255.289 152.337 253.987C152.85 253.846 153.622 253.752 154.57 253.688C163.601 253.092 171.676 248.242 177.181 241.059C178.537 239.29 180.082 237.71 181.611 236.017C191.208 225.386 197.093 211.347 197.213 195.926C197.287 186.388 195.105 177.324 191.179 169.232C193.713 171.663 196.04 174.309 198.125 177.141C195.665 173.047 192.737 169.262 189.413 165.862C189.411 165.86 189.411 165.857 189.408 165.854C200.238 176.927 206.888 192.085 206.758 208.655C206.641 223.992 200.817 237.964 191.312 248.573C191.287 248.601 191.264 248.629 191.238 248.657C191.213 248.688 191.185 248.716 191.157 248.746C188.636 251.54 187.366 255.111 187.41 258.702C187.422 261.164 188.057 263.632 189.367 265.875L189.377 265.89C189.393 265.918 189.411 265.949 189.428 265.977L193.677 273.259L200.009 284.102Z" fill="#C3B2D5"/>
<path d="M200.009 284.102L172.769 268.199C170.554 266.904 168.059 266.244 165.538 266.244C164.292 266.244 163.038 266.407 161.812 266.734C156.979 268.023 151.912 268.734 146.682 268.78C146.508 268.78 146.335 268.783 146.159 268.783C140.638 268.783 135.275 268.028 130.172 266.621C135.275 268.028 140.636 268.78 146.162 268.78C146.335 268.78 146.508 268.78 146.684 268.778C151.937 268.734 157.03 268.018 161.883 266.713C163.086 266.392 164.315 266.234 165.538 266.234C168.056 266.234 170.557 266.904 172.769 268.197L200.009 284.102ZM193.678 273.259L189.429 265.977C189.411 265.949 189.393 265.918 189.378 265.89L193.678 273.259ZM129.984 266.568C129.961 266.56 129.938 266.555 129.913 266.547C129.935 266.555 129.961 266.56 129.984 266.568ZM129.9 266.545C129.874 266.537 129.851 266.53 129.826 266.522C129.849 266.53 129.877 266.537 129.9 266.545ZM187.41 258.702C187.367 255.111 188.636 251.54 191.157 248.746C191.185 248.716 191.213 248.688 191.238 248.657C188.723 251.507 187.395 255.098 187.41 258.702Z" fill="#390075"/>
<path d="M97.338 243.94C95.8698 241.944 94.5164 239.854 93.2935 237.685C93.7627 238.166 94.2386 238.635 94.7229 239.102C95.5232 240.756 96.3975 242.369 97.338 243.94ZM198.125 177.141C196.04 174.31 193.713 171.664 191.18 169.232C190.624 168.09 190.035 166.966 189.413 165.863C192.737 169.263 195.666 173.048 198.125 177.141Z" fill="#C3B2D5"/>
<path d="M137.245 226.243C137.245 222.024 140.192 219.001 144.331 219.001C148.626 219.001 151.412 222.024 151.494 226.243C151.494 230.379 148.626 233.484 144.331 233.484C140.113 233.484 137.245 230.379 137.245 226.243ZM139.315 215.26L139.236 213.19C138.996 209.132 140.35 204.993 143.931 200.698C146.477 197.672 148.547 195.126 148.547 192.422C148.547 189.633 146.717 187.806 142.738 187.645C140.113 187.645 136.927 188.601 134.86 190.033L132.153 181.36C135.018 179.688 139.794 178.095 145.443 178.095C155.949 178.095 160.723 183.906 160.723 190.51C160.723 196.559 156.984 200.537 153.958 203.879C151.014 207.144 149.822 210.246 149.901 213.827V215.26H139.315Z" fill="#390075"/>
<path d="M270.929 289.049C251.381 323.793 242.052 362.449 242.942 405.02L438.201 400.251C462.094 357.603 460.473 301.429 438.364 273.131L270.929 289.049Z" fill="#8A423A"/>
<path d="M246.297 399.925C246.243 362.002 254.659 326.884 271.344 295.403C272.512 296.723 273.773 297.909 275.117 298.951C260.473 327.962 252.687 359.607 251.782 393.886C249.799 395.744 247.963 397.763 246.297 399.925Z" fill="#CAAAA6"/>
<path d="M273.034 292.276C254.986 324.996 245.998 361.725 246.304 401.525L436.157 396.889C457.152 357.919 457.409 304.936 436.791 276.707L273.034 292.276ZM242.942 408.43C242.063 408.43 241.219 408.094 240.584 407.487C239.929 406.86 239.55 405.999 239.529 405.091C238.632 362.099 248.195 322.495 267.954 287.377C268.502 286.403 269.494 285.761 270.605 285.654L438.043 269.734C439.195 269.632 440.337 270.113 441.053 271.031C452.395 285.552 458.75 306.95 458.943 331.281C459.14 356.031 452.831 381.117 441.178 401.92C440.589 402.971 439.49 403.633 438.285 403.661L243.024 408.43C242.998 408.43 242.968 408.43 242.942 408.43Z" fill="#390075"/>
<path d="M476.969 479.83H224.85C228.299 452.44 234.564 428.799 244.234 409.573C250.454 397.246 261.783 388.29 275.152 384.918L330.442 371.072L331.943 370.692C335.805 369.729 338.591 366.341 338.764 362.355L339.175 353.921C339.175 353.921 360.096 323.775 379.954 349.394V359.284C379.954 362.893 381.996 366.199 385.256 367.815L395.65 372.956L404.734 377.449L414.402 382.244L416.015 383.037L435.004 392.434L444.925 397.341L450.004 399.857C457.585 403.606 463.312 410.253 465.907 418.29C470.956 434.034 474.262 451.316 476.115 469.846C476.446 473.137 476.732 476.46 476.969 479.83Z" fill="#FFB78A"/>
<path d="M225.577 479.187H476.281C476.054 476.082 475.784 472.965 475.475 469.909C473.582 450.943 470.156 433.641 465.298 418.486C462.769 410.658 457.093 404.077 449.719 400.432L384.97 368.388C381.478 366.659 379.312 363.173 379.312 359.283V349.615C374.043 342.886 368.26 339.562 362.056 339.721C350.415 340.026 340.903 352.633 339.809 354.139L339.404 362.385C339.221 366.614 336.215 370.287 332.099 371.316L330.598 371.694L275.308 385.541C262.033 388.888 250.915 397.751 244.805 409.86C235.594 428.184 229.125 451.504 225.577 479.187ZM476.969 480.472H224.85C224.664 480.472 224.491 480.393 224.369 480.255C224.246 480.115 224.19 479.931 224.213 479.748C227.759 451.603 234.302 427.896 243.658 409.284C249.936 396.841 261.358 387.734 274.997 384.295L331.788 370.07C335.359 369.178 337.961 365.994 338.122 362.326L338.535 353.89C338.543 353.77 338.581 353.653 338.65 353.553C339.068 352.952 349.049 338.78 362.018 338.438C368.68 338.247 374.892 341.816 380.461 349.001C380.548 349.113 380.596 349.251 380.596 349.393V359.283C380.596 362.681 382.49 365.727 385.541 367.238L450.29 399.28C457.97 403.08 463.886 409.937 466.519 418.093C471.405 433.335 474.848 450.724 476.752 469.779C477.086 473.075 477.374 476.439 477.609 479.783C477.624 479.962 477.56 480.138 477.438 480.268C477.318 480.398 477.147 480.472 476.969 480.472Z" fill="#390075"/>
<path d="M234.681 474.431H229.02C232.637 449.315 238.772 428.034 247.285 411.11C252.34 401.072 261.052 393.408 271.591 389.577L271.421 394.919C263.415 399.487 256.808 406.32 252.572 414.714C244.173 431.424 238.336 451.486 234.681 474.431ZM306.21 384.372C305.524 383.327 304.836 382.264 304.145 381.178L330.075 374.684C329.42 377.064 327.536 379.032 324.975 379.674L306.21 384.372Z" fill="#FFDFCA"/>
<path d="M366.19 378.948C354.865 378.948 344.634 376.827 335.216 373.118C339.259 371.156 341.96 367.157 342.174 362.525L342.231 361.378C348.567 362.821 355.067 363.535 361.793 363.535C363.893 363.535 366.022 363.466 368.17 363.326C368.219 363.323 368.267 363.321 368.316 363.315C371.237 362.999 374.074 362.569 376.834 362.023C377.647 365.826 380.137 369.081 383.734 370.865L386.775 372.369C386.968 373.529 387.154 374.688 387.335 375.851C382.444 377.25 377.402 378.196 372.279 378.746C370.215 378.881 368.186 378.948 366.19 378.948Z" fill="#C38084"/>
<path d="M435.002 392.431V479.832H272.122L275.155 384.922L298.775 379.011C335.211 438.629 373.735 452.783 416.094 383.074L435.002 392.431Z" fill="#E72F84"/>
<path d="M473.12 474.431H468.481L449.734 441.597L445.959 434.985L444.071 431.679C443.464 430.603 442.893 429.558 442.34 428.478C440.803 425.452 439.49 422.314 438.415 419.098V397.924L445.103 401.235C445.164 402.038 445.236 402.839 445.322 403.639C446.382 413.574 449.482 423.196 454.452 431.883L471.838 462.352C472.335 466.295 472.761 470.325 473.12 474.431Z" fill="#C38084"/>
<path d="M280.658 474.431H275.708L278.484 387.606L297.182 382.927C297.88 384.043 298.576 385.142 299.27 386.22L283.349 390.204L280.658 474.431Z" fill="#FBB5DF"/>
<path d="M367.48 435.051C363.463 435.051 359.476 434.358 355.518 433.007C356.777 433.129 358.036 433.19 359.298 433.19H359.346C373.171 433.173 386.594 425.901 399.96 411.089C400.024 411.377 400.085 411.668 400.151 411.956C400.549 413.801 401.02 415.626 401.568 417.431C401.632 417.645 401.696 417.856 401.759 418.068C390.06 429.686 378.646 435.051 367.48 435.051Z" fill="#FBB5DF"/>
<path d="M275.644 476.422H431.591V394.55L417.366 387.512C398.173 418.216 379.174 433.165 359.346 433.191H359.298C338.593 433.193 318.261 416.745 297.182 382.927L278.483 387.607L275.644 476.422ZM435.002 483.245H272.121C271.199 483.245 270.312 482.871 269.672 482.208C269.03 481.543 268.68 480.648 268.711 479.725L271.744 384.816C271.793 383.291 272.848 381.984 274.326 381.614L297.947 375.701C299.399 375.341 300.911 375.958 301.688 377.233C321.61 409.835 340.997 426.367 359.3 426.367H359.336C376.905 426.347 395.02 411.184 413.178 381.303C414.098 379.792 416.018 379.234 417.608 380.019L436.516 389.373C437.678 389.949 438.415 391.134 438.415 392.432V479.832C438.415 481.718 436.888 483.245 435.002 483.245Z" fill="#390075"/>
<path d="M228.74 476.422H473.288C471.555 455.106 467.982 435.918 462.657 419.34C460.361 412.221 455.194 406.231 448.488 402.91L383.734 370.866C379.299 368.666 376.546 364.228 376.546 359.284V350.587C372.121 345.211 367.396 342.487 362.484 342.487C362.372 342.487 362.262 342.489 362.15 342.492C352.788 342.726 344.685 352.343 342.534 355.126L342.175 362.526C341.92 368.036 338.142 372.655 332.772 374.008L275.983 388.234C263.486 391.371 253.025 399.709 247.285 411.11C238.55 428.478 232.316 450.436 228.74 476.422ZM476.969 483.245H224.85C223.869 483.245 222.939 482.825 222.291 482.091C221.644 481.357 221.343 480.38 221.463 479.407C225.039 450.969 231.676 426.959 241.191 408.043C247.823 394.868 259.9 385.236 274.324 381.614L331.11 367.392C333.496 366.79 335.247 364.657 335.359 362.205L335.769 353.758C335.8 353.118 336.009 352.501 336.373 351.976C336.825 351.326 347.593 336.048 361.954 335.671C369.534 335.482 376.516 339.385 382.653 347.301C383.117 347.9 383.367 348.637 383.367 349.391V359.284C383.367 361.618 384.669 363.714 386.762 364.751L451.516 396.795C459.864 400.93 466.292 408.385 469.154 417.247C474.948 435.293 478.723 456.268 480.372 479.593C480.438 480.538 480.112 481.466 479.467 482.159C478.819 482.853 477.917 483.245 476.969 483.245Z" fill="#390075"/>
<path d="M435.193 248.359V287.95C435.193 298.727 432.835 309.425 427.995 319.044C414.481 345.975 392.201 357.29 367.943 359.918C350.869 361.024 336.2 357.448 323.114 350.788C309.949 344.109 300.248 332.163 295.946 318.047L290.677 300.848C267.067 300.848 259.392 266.382 273.35 256.207C275.975 254.292 279.363 253.232 283.556 253.423C283.601 253.408 283.635 253.423 283.665 253.423C330.995 257.489 376.694 224.672 379.811 180.317C381.774 186.092 383.846 191.504 386.091 196.553C390.712 207.044 395.999 216.016 402.361 223.706C410.984 234.134 421.584 242.173 435.193 248.359Z" fill="#FFB78A"/>
<path d="M282.6 254.043C279.154 254.043 276.174 254.945 273.727 256.727C267.317 261.401 265.219 271.967 268.624 282.422C271.426 291.019 278.69 300.205 290.677 300.205C290.96 300.205 291.207 300.389 291.289 300.659L296.557 317.859C300.855 331.947 310.64 343.74 323.405 350.214C337.416 357.346 351.97 360.313 367.903 359.275C395.39 356.298 415.424 342.667 427.421 318.756C432.086 309.483 434.551 298.832 434.551 287.95V248.772C421.215 242.649 410.52 234.582 401.866 224.117C395.627 216.572 390.274 207.641 385.505 196.811C383.668 192.684 381.916 188.254 380.178 183.335C378.083 201.633 368.624 218.764 353.318 231.852C334.273 248.14 308.861 256.227 283.612 254.063C283.584 254.066 283.551 254.066 283.528 254.063C283.214 254.051 282.906 254.043 282.6 254.043ZM361.806 360.759C348.009 360.759 335.206 357.662 322.824 351.359C309.75 344.727 299.728 332.655 295.331 318.236L290.201 301.485C277.81 301.248 270.307 291.733 267.406 282.822C263.83 271.844 266.116 260.685 272.97 255.689C275.868 253.576 279.421 252.6 283.558 252.781C283.624 252.779 283.688 252.779 283.734 252.786C308.631 254.922 333.697 246.942 352.482 230.879C368.351 217.309 377.831 199.337 379.171 180.274C379.192 179.968 379.426 179.72 379.73 179.682C380.023 179.644 380.321 179.822 380.418 180.11C382.464 186.133 384.514 191.427 386.68 196.291C391.401 207.014 396.692 215.846 402.855 223.298C411.463 233.708 422.13 241.714 435.458 247.775C435.69 247.88 435.835 248.109 435.835 248.359V287.95C435.835 299.033 433.322 309.883 428.568 319.332C416.362 343.656 395.989 357.524 368.012 360.555C365.922 360.69 363.853 360.759 361.806 360.759Z" fill="#390075"/>
<path d="M369.855 355.575C356.925 355.575 345.407 352.819 334.913 348.073C339.328 348.79 343.916 349.167 348.697 349.167C350.691 349.167 352.717 349.101 354.779 348.968C379.036 346.34 401.316 335.026 414.828 308.094C416.561 304.651 417.976 301.072 419.079 297.399C421.36 296.76 422.88 295.623 422.88 294.325C422.88 293.324 421.975 292.419 420.512 291.764C421.526 286.923 422.028 281.971 422.028 277.001V245.267C425.117 247.159 428.365 248.91 431.788 250.541V287.956C431.788 295.727 430.483 303.371 427.972 310.434L426.336 308.036C425.574 306.922 424.348 306.29 423.043 306.29C422.813 306.29 422.584 306.31 422.352 306.348C420.79 306.616 419.566 307.735 419.161 309.267L418.541 311.597C417.318 316.197 418.062 321.147 420.581 325.19C417.507 329.956 414.02 334.197 410.135 337.906C409.919 337.896 409.702 337.893 409.485 337.893C408.603 337.893 407.719 337.959 406.845 338.097C406.065 338.227 405.287 338.39 404.53 338.627L402.677 339.206L399.045 340.35L397.23 340.924C396.955 341.005 396.583 341.135 396.206 341.276C395.839 341.418 395.461 341.53 395.107 341.704C392.214 342.968 389.675 345.027 387.858 347.599C386.754 349.154 385.903 350.89 385.355 352.72C382.037 353.836 378.568 354.741 374.946 355.435C373.225 355.529 371.528 355.575 369.855 355.575Z" fill="#C38084"/>
<path d="M334.913 348.073C328.755 347.077 322.938 345.422 317.402 343.215C308.881 336.794 302.43 327.603 299.213 317.053L293.942 299.854C293.504 298.419 292.181 297.44 290.682 297.44C280.941 297.44 275.703 290.65 273.447 286.602C269.015 278.647 268.566 268.398 272.382 262.235C273.399 260.591 274.668 259.319 276.179 258.422C270.896 270.98 277.467 291.888 293.417 295.699C296.879 296.527 299.573 299.26 300.615 302.662L303.937 313.505C308.242 327.621 317.94 339.568 331.105 346.246C332.359 346.883 333.628 347.495 334.913 348.073Z" fill="#FFDFCA"/>
<path d="M361.831 356.711C348.682 356.711 336.473 353.762 324.664 347.749C322.11 346.455 319.681 344.933 317.402 343.215C322.938 345.422 328.755 347.076 334.913 348.073C345.406 352.819 356.925 355.574 369.855 355.574C371.527 355.574 373.225 355.529 374.945 355.434C372.58 355.888 370.148 356.25 367.655 356.523C365.693 356.647 363.751 356.711 361.831 356.711Z" fill="#E4C6C8"/>
<path d="M282.584 256.819C278.04 256.819 274.609 258.639 272.381 262.235C268.566 268.399 269.014 278.648 273.447 286.603C275.703 290.65 280.94 297.44 290.682 297.44C292.181 297.44 293.504 298.419 293.942 299.854L299.213 317.054C303.289 330.428 312.567 341.615 324.664 347.75C338.198 354.64 352.255 357.507 367.655 356.523C394.138 353.635 413.413 340.514 424.949 317.52C429.425 308.633 431.788 298.412 431.788 287.956V250.541C408.142 239.278 392.838 222.221 381.096 193.518C377.142 208.75 368.191 222.789 355.125 233.963C335.558 250.697 309.457 259.034 283.525 256.84C283.484 256.84 283.443 256.84 283.403 256.837C283.127 256.824 282.855 256.819 282.584 256.819ZM361.793 363.535C347.573 363.535 334.357 360.341 321.572 353.834C307.834 346.863 297.302 334.185 292.688 319.047L288.121 304.139C279.533 303.298 272.111 298.223 267.487 289.924C261.834 279.777 261.462 266.915 266.58 258.644C270.21 252.779 276.207 249.71 283.586 250.016C283.711 250.016 283.833 250.019 283.956 250.029H283.963C308.144 252.106 332.466 244.363 350.69 228.777C365.991 215.693 375.126 198.402 376.413 180.085C376.526 178.464 377.767 177.152 379.378 176.94C380.973 176.729 382.52 177.684 383.045 179.224C395 214.286 410.517 233.415 436.61 245.26C437.828 245.813 438.611 247.026 438.611 248.367V287.956C438.611 299.472 435.996 310.753 431.048 320.584C418.396 345.8 397.289 360.178 368.316 363.316C368.267 363.321 368.219 363.324 368.17 363.326C366.022 363.466 363.893 363.535 361.793 363.535Z" fill="#390075"/>
<path d="M284.784 257.464C284.621 257.464 284.455 257.453 284.29 257.433C284.025 257.4 283.77 257.392 283.515 257.382L283.846 249.475C284.328 249.498 284.787 249.521 285.269 249.582C287.435 249.853 288.975 251.828 288.704 253.997C288.455 255.998 286.749 257.464 284.784 257.464Z" fill="#390075"/>
<path d="M435.198 281.596V248.367C436.434 247.495 437.604 246.593 438.728 245.644C458.936 242.035 460.516 281.596 435.198 281.596Z" fill="#FFB78A"/>
<path d="M435.84 248.698V280.944C442.75 280.75 448.172 277.393 451.154 271.447C454.536 264.703 454.085 255.914 450.081 250.554C448.21 248.046 444.774 245.28 439.009 246.246C437.997 247.097 436.954 247.903 435.84 248.698ZM435.198 282.239C434.844 282.239 434.556 281.951 434.556 281.596V248.367C434.556 248.158 434.66 247.962 434.829 247.842C436.065 246.97 437.204 246.091 438.313 245.153C438.4 245.081 438.504 245.03 438.614 245.013C443.699 244.105 448.134 245.8 451.111 249.784C455.388 255.514 455.89 264.866 452.301 272.023C449 278.609 442.926 282.239 435.198 282.239Z" fill="#390075"/>
<path d="M438.611 250.101V277.881C444.188 276.836 447.14 273.272 448.677 270.206C451.569 264.44 451.218 256.705 447.863 252.211C445.957 249.66 443.377 248.546 440.168 248.882C439.659 249.298 439.141 249.7 438.611 250.101ZM435.198 285.007C433.315 285.007 431.788 283.481 431.788 281.597V248.367C431.788 247.256 432.328 246.216 433.233 245.576C434.403 244.753 435.479 243.925 436.524 243.04C436.982 242.65 437.535 242.39 438.127 242.286C444.295 241.185 449.693 243.259 453.331 248.128C458.199 254.65 458.811 265.223 454.779 273.265C451.037 280.728 443.9 285.007 435.198 285.007Z" fill="#390075"/>
<path d="M389.759 309.937C387.251 310.245 385.039 310.396 382.923 310.719C380.813 311.023 378.819 311.441 376.831 311.976C374.846 312.519 372.86 313.169 370.783 313.893C368.698 314.607 366.559 315.422 364.084 316.059L364.074 316.062C363.705 316.156 363.325 315.932 363.231 315.562C363.187 315.394 363.21 315.223 363.284 315.078C364.462 312.748 366.195 310.852 368.229 309.282C370.265 307.725 372.649 306.527 375.215 305.864C380.331 304.503 386.16 305.334 390.139 308.729C390.427 308.976 390.46 309.412 390.215 309.7C390.098 309.835 389.94 309.917 389.777 309.937H389.759Z" fill="#390075"/>
<path d="M329.433 308.798C324.985 308.798 321.597 307.45 321.212 305.245C320.71 302.377 325.487 299.143 331.88 298.027C333.36 297.767 334.8 297.644 336.144 297.644C340.592 297.644 343.979 298.993 344.364 301.197C344.866 304.065 340.089 307.299 333.697 308.416C332.216 308.676 330.776 308.798 329.433 308.798Z" fill="#F89BA6"/>
<path d="M414.81 297.948C410.354 297.948 406.74 296.327 406.74 294.326C406.74 292.325 410.354 290.704 414.81 290.704C417.035 290.704 419.051 291.109 420.511 291.764C420.114 293.661 419.635 295.542 419.079 297.4C417.84 297.746 416.377 297.948 414.81 297.948Z" fill="#F89BA6"/>
<path d="M419.079 297.399C419.635 295.541 420.114 293.66 420.511 291.764C421.974 292.419 422.879 293.324 422.879 294.325C422.879 295.623 421.36 296.759 419.079 297.399Z" fill="#CF75A2"/>
<path d="M407.984 234.567C408.053 234.567 407.974 234.539 407.918 234.516C407.869 234.491 407.8 234.468 407.724 234.448C407.581 234.402 407.433 234.356 407.268 234.323C406.951 234.236 406.61 234.195 406.266 234.137C405.575 234.068 404.856 234.024 404.14 234.086C402.703 234.185 401.242 234.552 399.848 235.217C398.487 235.928 397.133 236.851 395.963 238.059C395.341 238.628 394.855 239.336 394.273 239.984C393.769 240.685 393.295 241.424 392.793 242.16L392.724 242.257C392.418 242.708 391.801 242.826 391.352 242.517C390.978 242.262 390.835 241.793 390.973 241.383C391.276 240.486 391.561 239.568 391.898 238.658C392.321 237.787 392.66 236.851 393.183 236C394.143 234.244 395.448 232.623 397.013 231.167C398.612 229.75 400.528 228.603 402.629 227.836C403.676 227.443 404.775 227.176 405.899 226.977C406.467 226.9 407.036 226.816 407.627 226.791C407.918 226.765 408.223 226.763 408.534 226.763C408.685 226.76 408.843 226.763 409.019 226.775C409.187 226.783 409.335 226.786 409.628 226.829C411.764 227.283 413.13 229.383 412.676 231.521C412.223 233.657 410.122 235.021 407.984 234.567Z" fill="#390075"/>
<path d="M287.315 301.406L287.382 284.999C287.384 284.617 287.695 284.308 288.077 284.308C288.378 284.311 288.636 284.507 288.727 284.777L294.047 300.3C294.666 302.107 293.705 304.075 291.896 304.694C290.088 305.314 288.121 304.35 287.501 302.543C287.374 302.171 287.315 301.778 287.315 301.406Z" fill="#390075"/>
<path d="M308.917 247.791C310.219 248.278 311.838 248.757 313.344 249.168C314.876 249.588 316.434 249.973 317.999 250.289C321.131 250.926 324.312 251.449 327.498 251.632C330.677 251.811 333.891 251.813 337.034 251.332C340.164 250.827 343.235 249.922 346.069 248.382L346.11 248.362C346.571 248.11 347.15 248.281 347.4 248.742C347.621 249.15 347.514 249.647 347.17 249.932C344.463 252.16 341.29 253.809 337.969 255.012C334.635 256.195 331.169 256.86 327.684 257.326C324.192 257.785 320.69 257.882 317.183 257.839C315.427 257.821 313.676 257.729 311.919 257.592C310.13 257.451 308.468 257.296 306.529 256.98L306.483 256.972C303.88 256.549 302.117 254.097 302.54 251.495C302.965 248.895 305.417 247.128 308.017 247.554C308.321 247.603 308.637 247.689 308.917 247.791Z" fill="#390075"/>
<path d="M458.931 200.889C456.287 222.251 449.561 238.297 435.193 248.359C406.712 235.432 391.408 214.34 379.811 180.317C376.694 224.673 330.995 257.49 283.665 253.424C283.635 253.424 283.602 253.409 283.556 253.424C283.477 253.424 283.382 253.409 283.286 253.409C282.669 253.345 282.052 253.281 281.45 253.187C272.29 251.826 264.551 246.524 259.724 239.184C256.102 233.691 254.106 227.076 254.361 220.082C257.05 143.038 331.897 77.18 394.844 136.803L405.858 131.739C413.135 128.384 421.839 130.061 427.187 136.044C430.019 139.209 432.695 142.421 435.193 145.711C447.647 161.994 456.096 179.922 458.931 200.889Z" fill="#8A423A"/>
<path d="M298.678 263.495C296.035 263.495 293.384 263.382 290.723 263.156C290.703 263.156 290.683 263.148 290.657 263.148C290.642 263.148 290.629 263.151 290.614 263.156C290.535 263.156 290.438 263.14 290.343 263.14C289.727 263.077 289.11 263.013 288.508 262.919C284.048 262.253 279.924 260.658 276.307 258.348C278.078 257.329 280.176 256.819 282.585 256.819C282.855 256.819 283.128 256.824 283.403 256.837C283.418 256.837 283.433 256.84 283.449 256.84C283.474 256.84 283.5 256.84 283.525 256.84C283.528 256.842 283.533 256.842 283.538 256.842L283.515 257.382C283.77 257.393 284.025 257.4 284.29 257.433C284.456 257.454 284.621 257.464 284.784 257.464C285.409 257.464 286.01 257.316 286.546 257.049C288.269 257.14 289.992 257.186 291.715 257.186C296.081 257.186 300.429 256.893 304.732 256.317C305.252 256.641 305.841 256.868 306.483 256.972L306.529 256.98C308.468 257.296 310.13 257.451 311.92 257.591C313.676 257.729 315.427 257.821 317.183 257.839C317.665 257.844 318.149 257.849 318.631 257.849C321.654 257.849 324.674 257.721 327.684 257.326C331.125 256.865 334.546 256.213 337.842 255.055C325.803 260.472 312.409 263.495 298.678 263.495ZM331.136 251.742C329.922 251.742 328.707 251.701 327.498 251.632C326.637 251.584 325.778 251.507 324.919 251.413C335.922 247.478 346.205 241.592 355.126 233.963C368.191 222.789 377.143 208.75 381.096 193.518C382.327 196.526 383.596 199.403 384.909 202.161C379.615 222.914 364.844 240.267 345.552 251.158C346.108 250.771 346.648 250.36 347.17 249.932C347.515 249.647 347.622 249.15 347.4 248.742C347.227 248.426 346.9 248.245 346.564 248.245C346.411 248.245 346.255 248.283 346.11 248.362L346.069 248.382C343.235 249.922 340.164 250.827 337.034 251.331C335.086 251.63 333.111 251.742 331.136 251.742Z" fill="#D79286"/>
<path d="M276.307 258.348C275.279 257.69 274.29 256.977 273.35 256.207C273.885 255.817 274.454 255.463 275.053 255.147C277.576 255.99 280.229 256.556 282.985 256.803L283.28 256.829C283.336 256.834 283.392 256.837 283.449 256.839C283.433 256.839 283.418 256.837 283.403 256.837C283.127 256.824 282.855 256.819 282.584 256.819C280.176 256.819 278.078 257.328 276.307 258.348ZM291.715 257.186C289.991 257.186 288.268 257.14 286.545 257.048C288.266 257.14 289.986 257.183 291.707 257.183C296.073 257.183 300.424 256.89 304.729 256.317C304.729 256.317 304.729 256.317 304.732 256.317C300.429 256.893 296.081 257.186 291.715 257.186ZM324.919 251.413H324.916C335.92 247.477 346.202 241.594 355.125 233.963C346.204 241.592 335.922 247.477 324.919 251.413Z" fill="#390075"/>
<path d="M284.784 257.464C284.621 257.464 284.455 257.453 284.29 257.433C284.025 257.4 283.77 257.392 283.515 257.382L283.538 256.842C284.542 256.926 285.544 256.995 286.546 257.048C286.01 257.316 285.409 257.464 284.784 257.464Z" fill="#390075"/>
<path d="M318.631 257.849C318.149 257.849 317.664 257.844 317.183 257.839C315.427 257.821 313.676 257.729 311.919 257.592C310.13 257.451 308.468 257.296 306.528 256.98L306.483 256.972C305.84 256.868 305.252 256.641 304.732 256.317C304.729 256.317 304.729 256.317 304.729 256.317C311.624 255.394 318.396 253.745 324.916 251.413H324.919C325.778 251.507 326.637 251.584 327.498 251.632C328.706 251.701 329.922 251.742 331.135 251.742C333.111 251.742 335.086 251.63 337.033 251.332C340.163 250.827 343.235 249.922 346.069 248.382L346.11 248.362C346.255 248.283 346.411 248.245 346.564 248.245C346.9 248.245 347.226 248.426 347.4 248.742C347.621 249.15 347.514 249.647 347.17 249.932C346.648 250.36 346.107 250.771 345.552 251.158C343.054 252.568 340.479 253.87 337.841 255.055C334.546 256.213 331.125 256.865 327.684 257.326C324.674 257.722 321.653 257.849 318.631 257.849Z" fill="#390075"/>
<path d="M262.928 237.88C259.471 232.89 257.539 226.749 257.769 220.194C259.275 177.108 284.845 135.811 318.567 121.996C326.501 118.749 334.548 117.143 342.564 117.143C352.232 117.143 361.852 119.48 371.153 124.091C363.967 121.596 356.795 120.426 349.762 120.426C303.671 120.426 263.374 170.641 261.401 226.808C261.271 230.652 261.811 234.388 262.928 237.88ZM401.9 143.529C400.378 142.086 398.854 140.723 397.319 139.428L407.29 134.842C409.307 133.912 411.463 133.463 413.599 133.463C417.096 133.463 420.537 134.667 423.223 136.935C422.385 136.82 421.536 136.762 420.687 136.762C418.054 136.762 415.398 137.32 412.913 138.464L401.9 143.529Z" fill="#CAAAA6"/>
<path d="M283.958 250.029H283.963C308.145 252.106 332.466 244.363 350.69 228.776C365.991 215.693 375.126 198.401 376.413 180.085C376.526 178.464 377.767 177.151 379.378 176.94C380.973 176.728 382.521 177.684 383.046 179.224C394.722 213.47 409.799 232.518 434.808 244.421C435.394 243.97 435.965 243.514 436.523 243.04C446.925 234.233 452.961 220.842 455.495 200.915C452.38 178.546 442.286 158.065 424.648 138.322C420.369 133.535 413.229 132.105 407.29 134.843L396.274 139.907C395.005 140.488 393.514 140.244 392.502 139.285C369.893 117.87 343.64 111.73 318.567 121.996C284.845 135.811 259.275 177.108 257.769 220.194C257.231 235.561 268.573 248.657 283.594 250.008L283.686 250.016C283.777 250.016 283.869 250.021 283.958 250.029ZM291.707 257.183C288.98 257.183 286.255 257.071 283.525 256.839C283.443 256.839 283.362 256.837 283.28 256.829L282.985 256.804C264.355 255.129 250.285 238.941 250.948 219.955C252.572 173.58 279.314 130.703 315.982 115.683C343.051 104.595 371.204 110.667 395.497 132.755L404.438 128.644C413.071 124.665 423.476 126.776 429.736 133.775C448.427 154.698 459.083 176.504 462.318 200.438C462.356 200.728 462.356 201.024 462.32 201.315C459.596 223.288 452.798 238.202 440.93 248.247C439.73 249.264 438.499 250.215 437.163 251.155C436.174 251.851 434.89 251.973 433.788 251.471C409.001 240.221 393.167 223.023 381.096 193.518C377.142 208.75 368.191 222.789 355.125 233.963C337.615 248.935 314.881 257.183 291.707 257.183Z" fill="#390075"/>
<path d="M421.664 358.457L426.129 345.761C427.977 340.511 427.327 334.707 424.363 329.994L421.159 324.901C418.699 320.989 417.975 316.227 419.16 311.759L419.78 309.432C420.519 306.651 424.182 306.022 425.805 308.397L441.466 331.317C443.099 333.71 443.604 336.697 442.845 339.494L435.993 364.75L421.664 358.457Z" fill="#FFB78A"/>
<path d="M435.991 365.393C435.937 365.393 435.881 365.385 435.825 365.37C435.481 365.276 435.279 364.924 435.371 364.582L442.225 339.328C442.939 336.708 442.467 333.919 440.935 331.679L425.275 308.76C424.666 307.87 423.626 307.432 422.568 307.615C421.508 307.796 420.677 308.556 420.402 309.596L419.782 311.925C418.646 316.205 419.344 320.811 421.704 324.56L424.908 329.655C427.992 334.559 428.66 340.508 426.736 345.973L422.268 358.669C422.15 359.005 421.781 359.181 421.449 359.061C421.115 358.944 420.94 358.577 421.057 358.243L425.522 345.547C427.317 340.452 426.697 334.908 423.82 330.338L420.616 325.243C418.07 321.193 417.313 316.22 418.541 311.596L419.16 309.267C419.566 307.735 420.789 306.616 422.352 306.348C423.906 306.086 425.441 306.728 426.336 308.036L441.996 330.955C443.739 333.506 444.274 336.68 443.466 339.662L436.613 364.919C436.534 365.204 436.274 365.393 435.991 365.393Z" fill="#390075"/>
<path d="M431.38 346.475L427.194 344.482C428.52 339.443 427.712 334.116 424.908 329.655L421.704 324.56C419.344 320.811 418.646 316.205 419.782 311.925L420.402 309.596C420.677 308.556 421.508 307.796 422.568 307.615C422.729 307.587 422.887 307.574 423.042 307.574C423.929 307.574 424.758 308.005 425.275 308.76L425.484 309.068L425.099 310.531C423.911 315.009 424.64 319.755 427.092 323.681L430.304 328.776C433.263 333.476 433.913 339.282 432.06 344.536L431.38 346.475Z" fill="#FFDFCA"/>
<path d="M427.194 344.482L426.613 344.204L426.601 344.199C427.829 339.386 427.039 334.248 424.37 329.994L421.159 324.899C418.707 320.991 417.978 316.227 419.163 311.764L419.782 309.44C420.213 307.826 421.623 306.937 423.047 306.937C424.029 306.937 425.015 307.357 425.698 308.252L425.484 309.068L425.275 308.759C424.758 308.005 423.929 307.574 423.042 307.574C422.887 307.574 422.729 307.587 422.568 307.615C421.508 307.796 420.677 308.555 420.402 309.595L419.782 311.925C418.646 316.205 419.344 320.81 421.704 324.56L424.908 329.655C427.712 334.115 428.52 339.443 427.194 344.482Z" fill="#A68CC1"/>
<path d="M435.993 368.161C435.697 368.161 435.397 368.123 435.098 368.042C433.281 367.55 432.205 365.674 432.697 363.856L439.551 338.602C440.051 336.767 439.722 334.812 438.649 333.242L422.989 310.322L422.459 312.637C421.518 316.177 422.097 319.985 424.047 323.087L427.25 328.18C430.788 333.805 431.553 340.626 429.348 346.894L424.88 359.59C424.253 361.366 422.303 362.296 420.529 361.677C418.753 361.05 417.82 359.103 418.444 357.326L422.912 344.628C424.421 340.335 423.899 335.666 421.477 331.812L418.271 326.719C415.317 322.019 414.437 316.249 415.865 310.886L416.484 308.556C417.17 305.964 419.239 304.073 421.883 303.619C424.528 303.163 427.11 304.259 428.622 306.474L444.282 329.393C446.484 332.615 447.16 336.622 446.138 340.389L439.284 365.643C438.871 367.162 437.497 368.161 435.993 368.161Z" fill="#390075"/>
<path d="M404.26 378.958C396.779 396.112 406.816 421.545 406.816 421.545L424.75 496.178H476.969L440.974 433.132C436.014 424.445 432.906 414.826 431.846 404.88C430.763 394.708 431.836 384.469 434.55 374.605C436.411 367.845 437.652 360.82 438.2 353.503L410.51 340.315L397.875 344.299C391.199 346.401 387.083 353.09 388.21 359.997L392.576 386.732C392.576 386.732 402.465 386.335 404.838 377.238L407.609 364.776L404.26 378.958Z" fill="#FFB78A"/>
<path d="M425.255 495.536H475.865L440.416 433.451C435.382 424.634 432.285 415.043 431.206 404.947C430.156 395.088 431.074 384.823 433.934 374.437C435.772 367.761 436.98 360.851 437.528 353.893L410.461 341.003L398.069 344.911C391.74 346.904 387.776 353.345 388.844 359.893L393.114 386.042C394.985 385.833 400.906 384.734 403.485 379.139C403.546 378.994 403.607 378.846 403.671 378.703L403.699 378.647C403.898 378.158 404.071 377.633 404.219 377.075L406.982 364.636C407.059 364.29 407.405 364.073 407.747 364.149C408.093 364.226 408.313 364.57 408.234 364.917L405.466 377.376C405.297 378.02 405.093 378.622 404.861 379.183L404.849 379.216L404.836 379.241C404.81 379.302 404.785 379.364 404.759 379.425C397.643 396.13 407.313 421.058 407.415 421.308L425.255 495.536ZM476.969 496.821H424.75C424.455 496.821 424.195 496.617 424.126 496.329L406.194 421.693C405.838 420.813 397.75 399.971 402.106 383.258C398.178 387.092 392.675 387.37 392.601 387.372C392.288 387.357 391.992 387.156 391.941 386.834L387.578 360.099C386.405 352.927 390.751 345.871 397.681 343.685L410.316 339.703C410.474 339.655 410.64 339.665 410.785 339.736L438.478 352.922C438.715 353.036 438.861 353.286 438.84 353.549C438.303 360.739 437.069 367.881 435.17 374.776C432.356 385.009 431.451 395.113 432.484 404.811C433.544 414.732 436.585 424.152 441.532 432.813L477.527 495.86C477.639 496.058 477.639 496.303 477.525 496.502C477.41 496.698 477.198 496.821 476.969 496.821Z" fill="#390075"/>
<path d="M395.449 382.394C394.758 378.655 394.088 374.91 393.489 371.153L392.263 363.639L391.648 359.885L391.577 359.421L391.536 359.062C391.516 358.822 391.465 358.585 391.462 358.345C391.449 357.863 391.429 357.384 391.483 356.905C391.737 353.061 394.284 349.46 397.834 347.959C398.049 347.846 398.286 347.79 398.507 347.699C398.724 347.617 398.951 347.53 399.282 347.431L401.097 346.858L402.198 346.511C398.156 349.585 395.964 354.721 396.822 359.997L399.986 379.404C399.318 380.197 398.525 380.865 397.574 381.402C396.927 381.792 396.211 382.131 395.449 382.394Z" fill="#FFDFCA"/>
<path d="M428.135 474.431H423.032L419.099 458.065C417.603 451.846 416.104 445.626 414.669 439.392L410.38 420.688C410.354 420.571 410.316 420.438 410.273 420.326L410.227 420.199C409.085 417.094 408.078 413.623 407.214 410.276C406.388 406.886 405.639 403.476 405.185 400.045C404.729 396.619 404.4 393.194 404.347 389.753C404.352 388.545 404.39 387.336 404.466 386.128C407.173 385.328 410.861 383.482 412.74 379.269C405.509 396.408 415.429 421.55 415.429 421.55L428.135 474.431Z" fill="#FFDFCA"/>
<path d="M405.3 379.414C404.647 382.924 404.359 386.322 404.346 389.752C404.4 393.193 404.729 396.619 405.185 400.045C405.639 403.476 406.388 406.886 407.214 410.276C408.078 413.623 409.085 417.094 410.227 420.199L410.273 420.326C410.316 420.438 410.354 420.571 410.38 420.688L414.669 439.392C416.104 445.626 417.603 451.845 419.099 458.065L428.066 495.38L424.75 492.767H476.969L474.004 497.87L443.808 444.979L440.033 438.367L438.147 435.061C437.505 433.927 436.857 432.744 436.258 431.567C433.85 426.828 431.938 421.838 430.577 416.702C427.837 406.412 427.34 395.617 428.818 385.142C429.19 382.521 429.687 379.921 430.307 377.35C430.602 376.085 430.98 374.735 431.298 373.565C431.624 372.379 431.928 371.186 432.211 369.991C432.779 367.598 433.263 365.186 433.661 362.76C433.862 361.547 434.043 360.328 434.199 359.11C434.298 358.317 434.232 357.624 433.987 356.908C433.745 356.209 433.335 355.554 432.799 355.024C432.529 354.762 432.239 354.517 431.912 354.326C431.757 354.214 431.586 354.15 431.413 354.048L430.554 353.638L423.68 350.365L416.805 347.092L413.499 345.53C412.62 345.16 411.692 344.91 410.747 344.793C409.801 344.676 408.84 344.691 407.9 344.839C407.431 344.918 406.962 345.012 406.508 345.157L404.726 345.716L401.097 346.858L399.282 347.431C398.95 347.53 398.724 347.617 398.507 347.699C398.285 347.79 398.048 347.846 397.834 347.959C394.284 349.46 391.737 353.061 391.482 356.905C391.429 357.384 391.449 357.864 391.462 358.345C391.464 358.585 391.515 358.822 391.536 359.062L391.577 359.421L391.648 359.885L392.262 363.639L393.488 371.153C394.289 376.167 395.211 381.158 396.147 386.148L392.43 383.115L392.981 383.039C393.21 382.993 393.44 382.965 393.674 382.904C394.138 382.804 394.605 382.674 395.053 382.524C395.963 382.246 396.815 381.859 397.574 381.402C399.134 380.518 400.268 379.292 401.12 377.727C401.331 377.339 401.464 376.927 401.678 376.529L402.233 374.806C402.611 373.646 403.024 372.491 403.465 371.344C404.334 369.043 405.282 366.762 406.498 364.529C406.809 363.955 407.527 363.744 408.101 364.055C408.473 364.256 408.692 364.631 408.718 365.023C408.871 367.567 408.761 370.057 408.567 372.535C408.478 373.774 408.361 375.007 408.205 376.233C408.129 376.855 408.065 377.441 407.953 378.089C407.762 378.843 407.586 379.623 407.308 380.355C406.222 383.268 404.066 385.972 401.41 387.588C400.108 388.453 398.696 389.046 397.276 389.508C396.565 389.74 395.841 389.91 395.107 390.051C394.745 390.13 394.368 390.176 393.995 390.234C393.588 390.283 393.287 390.323 392.721 390.346L392.642 390.349C390.817 390.425 389.257 389.085 389.005 387.313C388.301 382.287 387.59 377.26 386.754 372.254L385.528 364.74L384.914 360.983L384.837 360.507L384.766 359.92C384.728 359.528 384.662 359.141 384.649 358.745C384.621 357.958 384.603 357.17 384.677 356.383C384.904 353.232 386.035 350.166 387.858 347.599C389.675 345.027 392.214 342.968 395.107 341.704C395.461 341.53 395.838 341.418 396.205 341.276C396.583 341.135 396.955 341.005 397.23 340.924L399.045 340.35L402.677 339.206L404.53 338.627C405.287 338.39 406.064 338.227 406.844 338.097C408.412 337.852 410.01 337.827 411.583 338.021C413.155 338.214 414.702 338.63 416.163 339.247C416.956 339.593 417.422 339.833 418.021 340.113L419.739 340.931L426.613 344.204L433.488 347.477L434.347 347.887C434.729 348.089 435.139 348.282 435.509 348.53C436.274 348.991 436.969 349.557 437.604 350.181C438.873 351.435 439.852 352.985 440.436 354.683C441.032 356.365 441.198 358.266 440.966 359.987C440.8 361.284 440.607 362.579 440.395 363.869C439.969 366.451 439.455 369.017 438.85 371.564C438.547 372.836 438.223 374.105 437.879 375.367C437.53 376.644 437.224 377.737 436.941 378.945C436.37 381.308 435.917 383.696 435.575 386.1C434.217 395.714 434.68 405.606 437.171 414.948C438.409 419.623 440.15 424.165 442.34 428.477C442.893 429.558 443.464 430.603 444.071 431.679L445.959 434.985L449.734 441.596L479.931 494.485C480.866 496.122 480.298 498.207 478.659 499.142C478.129 499.443 477.537 499.588 476.969 499.591H424.75C423.142 499.591 421.793 498.474 421.434 496.976L412.467 459.658C410.976 453.438 409.485 447.217 407.933 441.013L403.253 422.401L403.408 422.888C402.667 420.994 402.109 419.263 401.568 417.431C401.02 415.626 400.549 413.801 400.151 411.956C399.323 408.273 398.747 404.526 398.476 400.725C398.26 396.922 398.372 393.063 399.06 389.26C399.799 385.468 401.092 381.721 403.217 378.504C403.566 377.972 404.283 377.826 404.815 378.178C405.213 378.441 405.394 378.907 405.312 379.351L405.3 379.414Z" fill="#390075"/>
<path d="M498.981 670.836H198.612C182.445 670.836 169.339 657.73 169.339 641.562H528.255C528.255 657.73 515.149 670.836 498.981 670.836Z" fill="#B8C5D3"/>
<path d="M169.912 642.132C170.218 657.697 182.975 670.268 198.612 670.268H498.981C514.621 670.268 527.375 657.697 527.681 642.132H169.912ZM498.981 671.405H198.612C182.157 671.405 168.77 658.019 168.77 641.563V640.995H528.823V641.563C528.823 658.019 515.436 671.405 498.981 671.405Z" fill="#390075"/>
<path d="M523.718 649.115H507.132L507.698 644.976H524.62C524.431 646.395 524.128 647.779 523.718 649.115ZM191.289 649.115H173.873C173.465 647.779 173.162 646.395 172.973 644.976H190.721L191.289 649.115Z" fill="#F1F3F6"/>
<path d="M172.973 644.976C174.648 657.629 185.506 667.427 198.612 667.427H498.981C512.084 667.427 522.945 657.629 524.62 644.976H172.973ZM498.981 674.247H198.612C180.589 674.247 165.925 659.586 165.925 641.563C165.925 639.68 167.452 638.153 169.338 638.153H528.254C530.138 638.153 531.667 639.68 531.667 641.563C531.667 659.586 517.004 674.247 498.981 674.247Z" fill="#390075"/>
<path d="M213.599 670.836H484.819C493.96 670.836 501.657 664.502 502.733 656.096L524.579 496.517C525.851 486.581 517.47 477.844 506.666 477.844H191.753C180.948 477.844 172.568 486.581 173.84 496.517L195.689 656.096C196.764 664.502 204.459 670.836 213.599 670.836Z" fill="#C7D3E3"/>
<path d="M191.753 478.413C186.472 478.413 181.53 480.587 178.196 484.374C175.191 487.787 173.845 492.075 174.406 496.446L196.252 656.02C197.292 664.146 204.75 670.268 213.602 670.268H484.819C493.669 670.268 501.13 664.146 502.17 656.023L524.016 496.441C524.574 492.075 523.231 487.787 520.226 484.374C516.892 480.587 511.95 478.413 506.666 478.413H191.753ZM484.819 671.405H213.602C204.179 671.405 196.237 664.855 195.123 656.168L173.276 496.596C172.675 491.888 174.117 487.285 177.342 483.625C180.892 479.59 186.146 477.276 191.753 477.276H506.666C512.276 477.276 517.529 479.59 521.08 483.625C524.301 487.285 525.747 491.888 525.143 496.591L503.296 656.173C502.185 664.855 494.24 671.405 484.819 671.405Z" fill="#390075"/>
<path d="M206.664 643.003C203.524 642.585 200.35 642.139 197.157 641.672L177.225 496.083C176.771 492.535 177.872 489.044 180.329 486.253C183.125 483.077 187.288 481.254 191.753 481.254H483.229C482.816 484.756 482.35 488.22 481.837 491.603H204.969C195.1 491.603 187.443 499.749 188.605 509.016L206.664 643.003Z" fill="#F4F6F9"/>
<path d="M224.929 670.836H473.492C481.842 670.836 488.872 664.93 489.856 657.09L509.816 509.016C510.979 499.748 503.322 491.602 493.45 491.602H204.969C195.1 491.602 187.443 499.748 188.605 509.016L208.563 657.09C209.547 664.93 216.577 670.836 224.929 670.836Z" fill="#B8C5D3"/>
<path d="M191.753 481.255C187.288 481.255 183.125 483.077 180.329 486.253C177.872 489.044 176.771 492.536 177.225 496.084L199.068 655.633C199.93 662.37 206.177 667.427 213.602 667.427H484.819C492.244 667.427 498.492 662.37 499.348 655.664L521.199 496.056C521.651 492.536 520.547 489.044 518.092 486.253C515.296 483.077 511.131 481.255 506.666 481.255H191.753ZM484.819 674.247H213.602C202.754 674.247 193.596 666.631 192.304 656.53L170.46 496.981C169.749 491.43 171.436 486.029 175.206 481.744C179.297 477.097 185.327 474.431 191.753 474.431H506.666C513.091 474.431 519.122 477.097 523.213 481.744C526.983 486.029 528.67 491.43 527.964 496.951L506.113 656.558C504.823 666.631 495.667 674.247 484.819 674.247Z" fill="#390075"/>
<path d="M484.819 667.426H483.782C487.06 664.946 489.328 661.296 489.856 657.09L509.816 509.016C510.978 499.749 503.321 491.602 493.45 491.602H481.837C482.349 488.22 482.816 484.756 483.229 481.254H506.666C511.131 481.254 515.296 483.076 518.092 486.252C520.547 489.043 521.65 492.535 521.199 496.055L499.348 655.663C498.491 662.369 492.244 667.426 484.819 667.426ZM214.637 667.426H213.602C206.177 667.426 199.93 662.369 199.068 655.632L197.157 641.672C200.35 642.139 203.524 642.585 206.664 643.003L208.563 657.09C209.09 661.296 211.359 664.946 214.637 667.426Z" fill="#BCACD1"/>
<path d="M483.782 667.426H214.637C211.359 664.946 209.091 661.296 208.563 657.09L206.664 643.003C233.2 646.551 257.868 648.373 280.686 648.373C397.472 648.373 465.323 600.6 481.837 491.602H493.45C503.322 491.602 510.979 499.749 509.816 509.016L489.856 657.09C489.328 661.296 487.06 664.946 483.782 667.426Z" fill="#928AB7"/>
<path d="M484.82 670.836H213.602C204.457 670.836 196.767 664.502 195.689 656.096L193.78 641.18V641.17C194.909 641.338 196.035 641.506 197.157 641.672L199.069 655.632C199.93 662.369 206.177 667.426 213.602 667.426H214.637H483.782H484.82C492.244 667.426 498.492 662.369 499.348 655.663L521.2 496.055C521.651 492.535 520.547 489.043 518.092 486.252C515.296 483.076 511.132 481.254 506.666 481.254H483.229C483.364 480.12 483.492 478.991 483.614 477.844H506.674C517.476 477.844 525.856 486.576 524.584 496.519L502.73 656.096C501.652 664.502 493.962 670.836 484.82 670.836Z" fill="#390075"/>
<path d="M369.162 585.342C366.613 593.3 358.655 599.108 349.225 599.108C337.737 599.108 328.431 590.483 328.431 579.849C328.431 569.218 337.737 560.608 349.225 560.608C350.188 560.608 351.139 560.671 352.072 560.799C350.267 563.315 349.225 566.338 349.225 569.564C349.225 578.394 356.945 585.546 366.47 585.546C367.39 585.546 368.29 585.485 369.162 585.342Z" fill="#390075"/>
<path d="M358.228 583.602C353.178 581.056 349.658 576.236 349.261 570.626C349.261 570.623 349.261 570.618 349.261 570.615C349.261 570.595 349.258 570.577 349.256 570.557C349.256 570.554 349.256 570.554 349.256 570.552C349.256 570.542 349.256 570.534 349.256 570.524C349.256 570.519 349.253 570.513 349.253 570.508C349.253 570.491 349.25 570.475 349.25 570.457C349.25 570.452 349.25 570.45 349.25 570.447C349.25 570.44 349.248 570.432 349.248 570.422C349.248 570.417 349.248 570.409 349.248 570.404C349.248 570.396 349.245 570.389 349.245 570.381C349.245 570.368 349.245 570.358 349.245 570.348C349.243 570.34 349.243 570.33 349.243 570.322C349.243 570.315 349.243 570.307 349.243 570.297C349.243 570.292 349.24 570.284 349.24 570.276C349.24 570.266 349.24 570.256 349.24 570.248C349.24 570.238 349.238 570.231 349.238 570.223C349.238 570.213 349.238 570.203 349.238 570.192C349.238 570.187 349.238 570.182 349.238 570.174C349.235 570.164 349.235 570.154 349.235 570.144C349.235 570.136 349.235 570.131 349.235 570.124C349.235 570.111 349.233 570.101 349.233 570.088C349.233 570.083 349.233 570.078 349.233 570.073C349.233 570.06 349.233 570.05 349.233 570.037C349.233 570.034 349.23 570.032 349.23 570.027C349.23 570.011 349.23 569.999 349.23 569.983C349.23 569.978 349.23 569.976 349.23 569.971C349.23 569.958 349.23 569.945 349.228 569.935C349.228 569.93 349.228 569.927 349.228 569.925C349.228 569.909 349.228 569.894 349.228 569.879C349.228 569.876 349.228 569.871 349.228 569.869C349.228 569.856 349.228 569.843 349.228 569.833C349.228 569.828 349.228 569.823 349.228 569.82C349.225 569.805 349.225 569.79 349.225 569.774C349.225 569.772 349.225 569.769 349.225 569.767C349.225 569.754 349.225 569.741 349.225 569.728C349.225 569.723 349.225 569.721 349.225 569.716C349.225 569.7 349.225 569.685 349.225 569.67C349.225 569.667 349.225 569.667 349.225 569.665C349.225 569.652 349.225 569.637 349.225 569.624C349.225 569.619 349.225 569.616 349.225 569.611C349.225 569.596 349.225 569.581 349.225 569.565C349.225 569.555 349.225 569.542 349.225 569.532C349.225 569.527 349.225 569.522 349.225 569.517C349.225 569.509 349.225 569.502 349.225 569.496C349.225 569.491 349.225 569.484 349.225 569.479C349.225 569.474 349.225 569.468 349.225 569.463C349.225 569.456 349.225 569.448 349.225 569.44C349.225 569.438 349.225 569.435 349.225 569.433C349.225 569.423 349.225 569.415 349.225 569.405C349.253 566.726 350.01 564.19 351.328 561.97H351.471C352.437 561.97 353.385 562.033 354.32 562.161C352.516 564.677 351.471 567.7 351.471 570.926C351.471 576.101 354.114 580.689 358.228 583.602Z" fill="#F1F3F6"/>
<path d="M349.25 570.457C349.25 570.455 349.25 570.45 349.25 570.447C349.25 570.45 349.25 570.452 349.25 570.457ZM349.23 570.027C349.23 570.014 349.23 569.999 349.23 569.983C349.23 569.999 349.23 570.011 349.23 570.027ZM349.23 569.971C349.23 569.958 349.23 569.948 349.228 569.935C349.23 569.945 349.23 569.958 349.23 569.971Z" fill="#D7CCE3"/>
<path d="M351.47 600.47C346.806 600.47 342.506 599.048 339.042 596.647C341.966 598.169 345.327 599.056 348.909 599.107C348.919 599.107 348.926 599.107 348.934 599.107C348.944 599.107 348.955 599.107 348.965 599.107C348.98 599.107 348.998 599.107 349.013 599.107C349.021 599.107 349.026 599.107 349.034 599.107C349.049 599.107 349.064 599.107 349.079 599.107C349.085 599.107 349.087 599.107 349.092 599.107C349.113 599.109 349.13 599.109 349.148 599.109C349.153 599.109 349.158 599.109 349.166 599.109C349.184 599.109 349.204 599.109 349.225 599.109C349.243 599.109 349.26 599.109 349.278 599.109C349.283 599.109 349.288 599.109 349.294 599.109C349.306 599.109 349.319 599.109 349.332 599.109C349.337 599.109 349.347 599.109 349.355 599.107C349.365 599.107 349.375 599.107 349.383 599.107C349.393 599.107 349.401 599.107 349.408 599.107C349.418 599.107 349.426 599.107 349.436 599.107C349.446 599.107 349.454 599.107 349.464 599.107C349.472 599.107 349.482 599.107 349.49 599.107C349.497 599.107 349.508 599.107 349.518 599.107C349.525 599.107 349.533 599.107 349.541 599.107C349.551 599.107 349.564 599.107 349.571 599.107C349.579 599.107 349.587 599.107 349.594 599.104C349.605 599.104 349.615 599.104 349.625 599.104C349.633 599.104 349.638 599.104 349.645 599.104C349.658 599.104 349.668 599.104 349.681 599.104C349.686 599.104 349.689 599.104 349.694 599.104C349.709 599.104 349.722 599.104 349.734 599.102C349.737 599.102 349.74 599.102 349.742 599.102C358.319 598.908 365.604 593.912 368.578 586.908H368.718C369.636 586.908 370.538 586.844 371.407 586.704C368.861 594.662 360.901 600.47 351.47 600.47Z" fill="#F1F3F6"/>
<path d="M349.332 599.108C349.339 599.108 349.347 599.108 349.355 599.106C349.347 599.108 349.337 599.108 349.332 599.108ZM349.49 599.106C349.5 599.106 349.508 599.106 349.518 599.106C349.508 599.106 349.497 599.106 349.49 599.106ZM348.909 599.106C345.327 599.055 341.966 598.168 339.042 596.646C339.039 596.644 339.037 596.641 339.034 596.639C341.955 598.16 345.325 599.055 348.909 599.106ZM349.541 599.106C349.551 599.106 349.561 599.106 349.571 599.106C349.564 599.106 349.551 599.106 349.541 599.106ZM349.694 599.103C349.706 599.103 349.722 599.103 349.734 599.101C349.722 599.103 349.709 599.103 349.694 599.103ZM349.742 599.101C358.316 598.907 365.599 593.904 368.576 586.907H368.578C365.604 593.911 358.319 598.907 349.742 599.101Z" fill="#D7CCE3"/>
<path d="M296.973 201.738C295.826 201.738 294.717 201.435 293.654 200.787C286.933 196.701 288.042 182.598 296.132 169.286C302.726 158.438 311.92 151.461 318.735 151.461C320.282 151.461 321.707 151.823 322.951 152.578C329.672 156.664 325.069 168.643 316.979 181.956C310.171 193.161 303.06 201.738 296.973 201.738Z" fill="#96554E"/>
<path d="M291.714 250.363C289.135 250.363 286.548 250.253 283.963 250.029H283.958C283.869 250.021 283.777 250.016 283.686 250.016L283.594 250.009C276.439 249.364 270.12 246.058 265.52 241.108C273.22 243.435 280.647 244.727 287.736 244.727C309.307 244.727 327.743 232.778 341.185 201.743C348.213 181.617 356.224 173.825 364.852 173.825C368.808 173.825 372.891 175.464 377.068 178.301C376.696 178.806 376.459 179.42 376.413 180.085C375.126 198.402 365.991 215.693 350.69 228.776C334.413 242.696 313.275 250.363 291.714 250.363Z" fill="#722E4C"/>
<path d="M291.625 253.765C288.98 253.765 286.329 253.653 283.665 253.424C283.645 253.424 283.624 253.416 283.599 253.416C283.586 253.416 283.571 253.419 283.556 253.424C283.477 253.424 283.382 253.409 283.286 253.409C282.669 253.345 282.052 253.281 281.45 253.187C269.662 245.591 259.724 239.183 259.724 239.183C261.674 239.887 263.606 240.529 265.52 241.108C270.121 246.058 276.439 249.364 283.594 250.008L283.686 250.016C283.777 250.016 283.869 250.021 283.958 250.029H283.963C286.548 250.253 289.135 250.363 291.715 250.363C313.275 250.363 334.413 242.696 350.69 228.776C365.991 215.693 375.126 198.401 376.413 180.085C376.459 179.42 376.696 178.806 377.069 178.301C377.978 178.918 378.894 179.591 379.811 180.317C376.87 222.177 335.994 253.76 291.625 253.765Z" fill="#390075"/>
<path d="M434.808 244.422C411.16 233.166 396.394 215.525 384.985 184.684C403.49 199.834 418.735 207.2 429.269 207.2C445.144 207.2 450.326 190.485 439.888 158.509C448.279 172.036 453.425 186.06 455.495 200.915C452.961 220.842 446.926 234.234 436.524 243.04C435.965 243.514 435.394 243.97 434.808 244.422Z" fill="#722E4C"/>
<path d="M435.193 248.359C406.712 235.431 391.408 214.339 379.811 180.317C381.562 181.839 383.288 183.294 384.985 184.683C396.394 215.525 411.16 233.165 434.808 244.421C435.394 243.97 435.965 243.514 436.523 243.04C446.925 234.233 452.961 220.841 455.495 200.914C453.425 186.06 448.279 172.036 439.888 158.509C438.575 154.484 437.013 150.22 435.193 145.711C447.647 161.993 456.096 179.922 458.93 200.889C456.287 222.251 449.561 238.296 435.193 248.359Z" fill="#390075"/>
<path d="M335.79 270.532C334.648 270.578 333.761 270.529 332.774 270.468C331.813 270.407 330.865 270.313 329.922 270.193C328.036 269.951 326.175 269.591 324.358 269.117C322.538 268.638 320.767 267.993 319.087 267.229C317.407 266.444 315.845 265.455 314.451 264.348C317.861 265.47 321.335 265.605 324.697 265.261C326.382 265.077 328.041 264.784 329.667 264.392C330.48 264.196 331.283 263.976 332.071 263.732C332.833 263.495 333.692 263.209 334.278 262.939C336.271 262.024 338.632 262.898 339.547 264.891C340.464 266.885 339.59 269.245 337.594 270.16C337.115 270.382 336.61 270.499 336.111 270.522L335.79 270.532Z" fill="#390075"/>
<path d="M325.829 277.993C326.234 286.159 331.23 292.549 336.988 292.264C342.746 291.978 347.086 285.127 346.681 276.963C346.278 268.796 341.283 262.406 335.525 262.692C329.767 262.977 325.426 269.826 325.829 277.993Z" fill="#390075"/>
<path d="M326.397 277.964C326.777 285.639 331.327 291.703 336.615 291.703C336.73 291.703 336.845 291.7 336.957 291.695C339.554 291.568 341.935 289.993 343.666 287.263C345.435 284.472 346.301 280.822 346.113 276.988C345.924 273.157 344.698 269.612 342.661 267.007C340.673 264.463 338.17 263.11 335.553 263.26C330.116 263.528 326.01 270.124 326.397 277.964ZM336.621 292.84C330.728 292.84 325.671 286.302 325.263 278.021C324.845 269.556 329.435 262.424 335.497 262.123C338.517 261.986 341.336 263.464 343.559 266.308C345.738 269.094 347.048 272.867 347.249 276.932C347.451 280.998 346.518 284.885 344.624 287.872C342.692 290.923 339.99 292.684 337.016 292.832C336.883 292.837 336.751 292.84 336.621 292.84Z" fill="#390075"/>
<path d="M335.377 273.654C335.494 276.032 336.947 277.893 338.624 277.809C340.301 277.727 341.563 275.732 341.446 273.353C341.328 270.978 339.876 269.117 338.198 269.201C336.521 269.283 335.257 271.279 335.377 273.654Z" fill="white"/>
<path d="M404.342 252.975C404.905 253.21 405.741 253.449 406.478 253.643C407.24 253.847 408.02 254.023 408.807 254.176C410.382 254.482 411.986 254.683 413.609 254.777C416.852 254.94 420.18 254.612 423.387 253.317C422.123 254.474 420.69 255.537 419.123 256.396C417.552 257.239 415.883 257.971 414.155 258.534C412.429 259.095 410.653 259.541 408.843 259.87C407.938 260.033 407.026 260.173 406.1 260.278C405.147 260.382 404.298 260.471 403.182 260.479H402.853C400.697 260.492 398.938 258.754 398.925 256.597C398.915 254.441 400.653 252.682 402.81 252.669C403.345 252.667 403.875 252.781 404.342 252.975Z" fill="#390075"/>
<path d="M413.122 267.534C413.122 275.724 408.636 282.366 403.1 282.366C397.564 282.366 393.078 275.724 393.078 267.534C393.078 259.342 397.564 252.702 403.1 252.702C408.636 252.702 413.122 259.342 413.122 267.534Z" fill="#390075"/>
<path d="M403.1 253.271C397.888 253.271 393.646 259.671 393.646 267.534C393.646 275.397 397.888 281.795 403.1 281.795C408.315 281.795 412.554 275.397 412.554 267.534C412.554 259.671 408.315 253.271 403.1 253.271ZM403.1 282.934C397.261 282.934 392.51 276.024 392.51 267.534C392.51 259.044 397.261 252.134 403.1 252.134C408.94 252.134 413.691 259.044 413.691 267.534C413.691 276.024 408.94 282.934 403.1 282.934Z" fill="#390075"/>
<path d="M403.763 263.665C403.763 266.051 402.455 267.983 400.844 267.983C399.233 267.983 397.926 266.051 397.926 263.665C397.926 261.282 399.233 259.348 400.844 259.348C402.455 259.348 403.763 261.282 403.763 263.665Z" fill="white"/>
</svg>
