<svg width="1920" height="394" viewBox="0 0 1920 394" fill="none" xmlns="http://www.w3.org/2000/svg">
<g clip-path="url(#clip0_1_9)">
<path d="M1920 0V283.49C1723.27 258.19 1486.45 326.85 1190.15 220.1C1179.65 216.313 1169.22 212.667 1158.85 209.16C582.57 13.15 200 205 0 393.45V0H1920Z" fill="#5D378C"/>
<path d="M1920 240V283.5C1704.44 304.5 1575 351.33 1190.15 220.11C1179.59 216.51 1156.3 208.36 1145.95 204.85C599.79 19.07 169.88 233.37 0 393.45V388C169.87 225.45 600.83 -32.64 1190.15 176.59C1544 302.22 1736.51 269.92 1920 240Z" fill="#E72F84"/>
</g>
<defs>
<clipPath id="clip0_1_9">
<rect width="1920" height="393.45" fill="white"/>
</clipPath>
</defs>
</svg>
