<svg width="1920" height="452" viewBox="0 0 1920 452" fill="none" xmlns="http://www.w3.org/2000/svg">
<path d="M1933.13 357.003L1934.57 398.339C1723.26 379.244 1467.06 303.579 1146.54 209.607C1135.18 206.268 1123.89 203.08 1112.69 199.999C489.672 28.2585 -14.1954 320.883 -121.018 404.246L-121.198 399.069C90.3025 211.69 502.802 -19.9517 1145.1 168.271C1465.62 262.242 1721.82 337.907 1933.13 357.003Z" fill="#FF0076"/>
<path d="M1948.1 14L1948.1 361C1745.72 340.954 1502.11 272.905 1197.31 188.346C1186.51 185.342 1175.77 182.465 1165.11 179.683C572.287 24.415 178.75 176.37 -27 325.665L-27 14L1948.1 14Z" fill="#3D1C66"/>
</svg>
