<?xml version="1.0" encoding="UTF-8" standalone="no"?>
<svg
   width="1921"
   height="376"
   viewBox="0 0 1921 376"
   fill="none"
   version="1.1"
   id="svg2"
   sodipodi:docname="header.svg"
   inkscape:version="1.3 (0e150ed6c4, 2023-07-21)"
   xmlns:inkscape="http://www.inkscape.org/namespaces/inkscape"
   xmlns:sodipodi="http://sodipodi.sourceforge.net/DTD/sodipodi-0.dtd"
   xmlns="http://www.w3.org/2000/svg"
   xmlns:svg="http://www.w3.org/2000/svg">
  <defs
     id="defs2" />
  <sodipodi:namedview
     id="namedview2"
     pagecolor="#ffffff"
     bordercolor="#000000"
     borderopacity="0.25"
     inkscape:showpageshadow="2"
     inkscape:pageopacity="0.0"
     inkscape:pagecheckerboard="0"
     inkscape:deskcolor="#d1d1d1"
     inkscape:zoom="0.67204581"
     inkscape:cx="795.33269"
     inkscape:cy="416.63826"
     inkscape:window-width="1920"
     inkscape:window-height="1051"
     inkscape:window-x="0"
     inkscape:window-y="0"
     inkscape:window-maximized="1"
     inkscape:current-layer="svg2" />
  <path
     d="M 1920.9206,3.96729e-4 V 322.20499 C 1048.5025,185.95927 1026.492,204.36359 853.90926,185.4072 681.32654,166.45182 391.05597,145.68485 -0.13152131,286.36859 L 0,3.96729e-4 Z"
     fill="#5d378c"
     id="path1"
     style="stroke-width:0.999117"
     sodipodi:nodetypes="cccccc" />
  <path
     d="M 1921.6801,302.14717 1921,346.96643 C 1744.4943,311.00598 1440.3683,266.82017 1255.6265,241.30663 1192.0447,232.52574 1142.6039,225.95658 1117.3738,222.69568 996.78359,202.51241 960.03148,202.55692 917.85437,198.45838 593.12658,170.8733 202.96459,202.71369 0.01552594,330.32268 L 0.09256932,286.16382 C 92.229094,242.11173 450.17766,108.44632 1099.5672,195.78463 c 298.61,31.505 520.6929,59.85154 822.1129,106.36254 z"
     fill="#e72f84"
     id="path2"
     sodipodi:nodetypes="ccscccccc" />
</svg>
