<?xml version="1.0" encoding="UTF-8" standalone="no"?>
<svg
   width="1526"
   height="375"
   viewBox="0 0 1526 375"
   fill="none"
   version="1.1"
   id="svg2"
   sodipodi:docname="header.svg"
   inkscape:version="1.3 (0e150ed6c4, 2023-07-21)"
   xmlns:inkscape="http://www.inkscape.org/namespaces/inkscape"
   xmlns:sodipodi="http://sodipodi.sourceforge.net/DTD/sodipodi-0.dtd"
   xmlns="http://www.w3.org/2000/svg"
   xmlns:svg="http://www.w3.org/2000/svg">
  <defs
     id="defs2" />
  <sodipodi:namedview
     id="namedview2"
     pagecolor="#ffffff"
     bordercolor="#000000"
     borderopacity="0.25"
     inkscape:showpageshadow="2"
     inkscape:pageopacity="0.0"
     inkscape:pagecheckerboard="0"
     inkscape:deskcolor="#d1d1d1"
     inkscape:zoom="0.59821419"
     inkscape:cx="784.83595"
     inkscape:cy="274.1493"
     inkscape:window-width="1920"
     inkscape:window-height="1011"
     inkscape:window-x="0"
     inkscape:window-y="0"
     inkscape:window-maximized="1"
     inkscape:current-layer="svg2" />
  <path
     d="M1525.68 1.92304e-05V375C1369.35 353.337 1181.17 279.797 945.727 188.414C937.386 185.168 929.088 182.058 920.858 179.052C462.924 11.2554 158.933 175.471 0 336.814V1.92304e-05H1525.68Z"
     fill="#5D378C"
     id="path1" />
  <path
     d="m 1525.6472,341.09053 v 34.817 c -156.33,-20.252 -344.51,-89 -579.95298,-174.429 -8.341,-3.034 -16.639,-5.941 -24.869,-8.755 -457.934,-156.864106 -760.67127,-0.84054 -920.85799549,147.482 v -4.361 C 160.09558,176.89969 473.88022,-4.4543768 945.69422,166.66153 c 235.44298,85.429 423.62298,154.177 579.95298,174.429 z"
     fill="#e72f84"
     id="path2"
     sodipodi:nodetypes="cccccccc" />
</svg>
