<svg width="193" height="179" viewBox="0 0 193 179" fill="none" xmlns="http://www.w3.org/2000/svg">
<path d="M39.3804 76.5803C39.7938 74.9886 40.0623 73.6079 40.5365 72.3041C40.7139 71.8156 41.3061 71.3475 41.8202 71.1302C51.6659 66.9525 61.5169 62.7854 71.3908 58.6756C78.2331 55.828 85.113 53.0696 91.9754 50.2713C92.351 50.1184 92.7266 49.9614 93.4352 49.669C92.6559 51.5576 92.0693 53.2031 91.2851 54.749C91.0516 55.2083 90.2922 55.4542 89.7274 55.6849C77.0162 60.863 64.2849 65.9973 51.5858 71.2087C47.5818 72.852 43.6584 74.691 39.3804 76.5803Z" fill="#E72F84"/>
<path d="M67.6578 96.0819C66.5225 98.0101 65.7023 99.5295 64.7605 100.97C63.2489 103.281 61.2982 104.87 58.2967 104.282C55.5154 103.737 53.912 101.841 53.5082 99.2183C53.0502 96.2555 53.1439 93.2112 52.7886 90.2267C52.6088 88.7152 52.2049 87.1255 51.4789 85.8046C50.1878 83.4545 51.3919 80.2888 55.4193 77.3482C55.672 80.8462 55.8944 83.9804 56.1275 87.1131C56.264 88.9355 56.2779 90.7821 56.6024 92.572C57.0038 94.7803 58.3037 96.3224 60.7134 96.4618C63.2137 96.6063 65.3209 95.2104 65.5649 93.0258C65.9353 89.7102 65.9557 86.0968 64.9893 82.9605C63.9892 79.7216 64.1656 77.1639 66.6319 73.8017C67.5521 76.5608 68.523 78.8224 69.0369 81.1825C69.6775 84.1276 69.861 87.1685 70.4084 90.1364C70.6381 91.3785 71.1239 92.6493 71.7933 93.7197C73.0074 95.6607 75.0997 96.3302 76.7535 94.8874C77.7074 94.0544 78.1258 91.7933 77.7652 90.4476C77.1367 88.1038 75.389 86.0668 74.7139 83.7271C73.7778 80.4827 73.3494 77.0691 75.8584 74.2429C77.2827 77.6167 78.5745 80.7495 79.9249 83.8555C82.0959 88.8542 82.688 93.7474 79.6323 98.6936C76.2591 104.155 72.366 104.23 69.175 98.7409C68.7519 98.0139 68.3407 97.2803 67.6578 96.0819Z" fill="#E72F84"/>
<path d="M163.628 32.2599C158.856 33.8544 158.807 33.8932 155.737 29.8795C154.031 27.6477 152.404 25.3357 150.974 22.9232C149.863 21.0473 150.383 18.594 152.184 17.3656C155.812 14.8912 159.671 14.7137 163.516 16.4655C169.026 18.9772 173.271 23.1467 177.756 27.5409C172.838 29.1838 168.234 30.7219 163.628 32.2599ZM191.598 21.8293C187.194 16.9815 182.887 12.0095 178.114 7.53998C173.651 3.36303 168.196 0.833871 161.969 0.146622C151.564 -1.00096 140.054 12.4489 145.51 24.2675C147.315 28.1803 149.873 31.7447 152.151 35.5777C151.677 35.7642 150.931 36.0821 150.17 36.3559C141.622 39.4225 133.036 42.3904 124.532 45.5741C116.781 48.4747 109.188 51.7362 102.325 56.4812C100.604 57.6708 99.6025 59.1706 99.1982 61.1983C98.4804 64.7934 97.8694 68.4296 96.8341 71.9361C96.1333 74.3072 96.9732 75.3305 99.0279 75.892C103.366 77.076 107.698 78.2879 112.058 79.3838C121.735 81.8185 131.439 84.1425 141.103 86.6252C142.844 87.0716 144.444 88.0663 146.735 89.086C144.517 91.0035 143.037 92.3938 141.445 93.6431C135.964 97.946 116.636 114.001 93.3579 121.956C91.4036 122.623 86.1252 124.361 79.1285 125.701C71.9532 127.077 60.8803 126.719 57.3364 126.21C52.6654 125.539 47.5822 124.81 41.2422 122.665C36.3861 121.023 31.6555 119.426 26.5256 115.458C25.7575 114.866 22.7476 112.492 19.5699 108.576C16.003 104.178 13.9125 99.9162 12.6903 96.8793C12.6903 96.8793 9.8788 90.6369 9.56549 83.1096C9.401 79.1434 10.5322 76.1179 13.9326 73.6068C20.8587 68.4923 28.5416 64.8252 36.1252 60.9038C44.9686 56.3285 53.7864 51.6747 62.3834 46.6574C68.0206 43.3661 73.0245 39.0377 76.4986 33.4184C79.8705 27.962 82.8684 22.2599 85.7809 16.5393C87.1582 13.8373 87.9548 10.8379 89.0143 7.97264C88.706 7.8334 88.3976 7.69416 88.088 7.55493C86.5017 10.4322 84.8141 13.2591 83.3507 16.1974C81.0355 20.8458 78.4383 25.2122 73.9014 28.0901C72.0523 29.2627 70.3854 30.7548 68.4612 31.7729C56.5168 38.0879 44.4853 44.239 32.557 50.5859C23.2559 55.5343 15.2156 61.8836 10.5108 71.7766C9.04239 74.8629 7.4579 77.8935 5.61569 80.7727C3.723 83.7281 2.33868 86.8302 1.43458 90.0218C1.06845 91.3174 0.469723 93.4482 0.29246 96.1686C-0.0171082 100.92 1.14126 104.565 1.86943 106.787C3.80001 112.673 6.82424 116.533 8.92008 119.157C9.6985 120.132 13.3349 124.615 19.4256 128.901C22.8609 131.318 25.7872 132.766 27.3878 133.548C31.5275 135.574 34.8488 136.654 37.8405 137.609C39.7047 138.204 43.4248 139.329 48.2899 140.307C51.4101 140.936 55.9577 141.831 61.9157 142.089C69.1498 142.404 74.6452 141.613 77.8041 141.142C82.0639 140.508 87.4358 139.397 93.4721 137.363C93.4721 137.363 112.941 130.739 136.618 112.076C137.412 111.45 137.938 111.024 138.164 110.845C141.331 108.346 146.73 103.642 149.852 96.3103C151.802 91.7294 152.075 87.8887 152.13 86.9286C152.3 83.9908 152.622 78.3713 149.092 74.7641C148.013 73.6614 146.99 72.8946 144.597 72.1419C137.667 69.9603 130.691 67.9176 123.695 65.9549C120.56 65.0747 117.329 64.5347 114.141 63.8399C114.909 62.954 115.67 62.5241 116.478 62.2248C130.841 56.9132 145.211 51.6243 159.572 46.3087C160.747 45.8751 161.482 46.0466 162.098 47.2478C163.034 49.0748 164.15 50.8107 165.194 52.5828C165.444 52.5142 165.416 52.5222 165.666 52.455L165.646 44.2163C172.619 42.167 179.674 40.1216 186.701 37.9881C187.398 37.7758 188.268 37.1363 188.481 36.5024C189.809 32.5378 191.042 28.5374 192.134 24.5027C192.351 23.7008 192.133 22.42 191.598 21.8293Z" fill="#E72F84"/>
<path d="M66.1038 166.944L54.9342 178.169L43.7092 167L54.8788 155.775L66.1038 166.944Z" fill="#E72F84"/>
<path d="M93.1705 166.877L82.0009 178.102L70.7759 166.933L81.9454 155.708L93.1705 166.877Z" fill="#E72F84"/>
</svg>
