<svg width="113" height="102" viewBox="0 0 113 102" fill="none" xmlns="http://www.w3.org/2000/svg">
<g filter="url(#filter0_d_145_15)">
<path d="M26.8883 43.2356C27.0868 42.5035 27.2157 41.8684 27.4433 41.2687C27.5285 41.044 27.8126 40.8287 28.0592 40.7287C32.7827 38.8063 37.5088 36.8889 42.2458 34.9978C45.5284 33.6875 48.829 32.4182 52.1213 31.1305C52.3015 31.0602 52.4817 30.988 52.8216 30.8534C52.4476 31.7221 52.1661 32.479 51.7897 33.1901C51.6777 33.4013 51.3134 33.5145 51.0424 33.6207C44.9442 36.0034 38.8363 38.3659 32.7439 40.764C30.823 41.5201 28.9407 42.3663 26.8883 43.2356Z" fill="white"/>
<path d="M40.4546 52.2105C39.9098 53.0977 39.5161 53.7968 39.0641 54.4599C38.3387 55.523 37.4026 56.2541 35.9627 55.9842C34.6283 55.7336 33.8592 54.8614 33.6657 53.6547C33.4462 52.2916 33.4915 50.891 33.3212 49.518C33.2351 48.8226 33.0415 48.0912 32.6933 47.4836C32.074 46.4025 32.652 44.9459 34.5845 43.5927C34.7054 45.202 34.8119 46.6439 34.9234 48.0852C34.9888 48.9236 34.9953 49.7732 35.1508 50.5966C35.3432 51.6126 35.9667 52.322 37.1228 52.3859C38.3224 52.4522 39.3335 51.8098 39.4507 50.8047C39.6288 49.2792 39.6389 47.6168 39.1755 46.174C38.696 44.6839 38.7808 43.5072 39.9644 41.9601C40.4056 43.2294 40.8712 44.2698 41.1176 45.3556C41.4247 46.7105 41.5124 48.1095 41.7748 49.475C41.8849 50.0464 42.1179 50.631 42.4389 51.1234C43.0213 52.0163 44.025 52.3241 44.8186 51.6602C45.2764 51.2769 45.4773 50.2366 45.3044 49.6175C45.0031 48.5392 44.1647 47.6022 43.841 46.5258C43.3922 45.0333 43.1869 43.4628 44.391 42.1623C45.074 43.7144 45.6935 45.1556 46.3411 46.5845C47.3823 48.884 47.6659 51.1352 46.1994 53.4111C44.5806 55.9242 42.7128 55.959 41.1823 53.4337C40.9794 53.0993 40.7822 52.7618 40.4546 52.2105Z" fill="white"/>
<path d="M86.4969 22.8429C84.2073 23.5768 84.1837 23.5946 82.7113 21.7485C81.8932 20.7219 81.1129 19.6585 80.4271 18.5488C79.8941 17.6859 80.144 16.5573 81.0082 15.992C82.7485 14.8535 84.6001 14.7714 86.4443 15.577C89.0876 16.732 91.1237 18.6497 93.2753 20.6708C90.9154 21.427 88.7065 22.1349 86.4969 22.8429ZM99.9163 18.0421C97.804 15.8124 95.7381 13.5255 93.4483 11.4698C91.3079 9.54865 88.6908 8.38563 85.7035 8.07C80.7122 7.54296 75.1889 13.7312 77.8053 19.1676C78.6712 20.9675 79.8982 22.607 80.9905 24.3701C80.7629 24.4559 80.4051 24.6022 80.0401 24.7283C75.9388 26.1397 71.8195 27.5057 67.7394 28.9711C64.021 30.306 60.3779 31.8071 57.085 33.9905C56.2592 34.5379 55.7786 35.2279 55.5844 36.1607C55.2398 37.8146 54.9464 39.4874 54.4494 41.1007C54.1129 42.1915 54.5158 42.6621 55.5015 42.9203C57.5823 43.4646 59.6606 44.0217 61.7523 44.5255C66.3944 45.6447 71.0498 46.713 75.6856 47.8543C76.5209 48.0595 77.2883 48.517 78.3877 48.9858C77.3235 49.8681 76.6131 50.5079 75.8495 51.0827C73.2194 53.0626 63.9454 60.4498 52.7773 64.1113C51.8397 64.4185 49.3073 65.2187 45.9505 65.8357C42.5081 66.4689 37.1959 66.3052 35.4958 66.0715C33.255 65.7632 30.8164 65.4284 27.775 64.4419C25.4455 63.6872 23.1761 62.9527 20.7155 61.128C20.347 60.8554 18.9032 59.7636 17.3791 57.9623C15.6683 55.9395 14.6657 53.9793 14.0796 52.5823C14.0796 52.5823 12.7314 49.7108 12.5817 46.2481C12.5032 44.4235 13.0461 43.0316 14.6777 41.8762C18.0009 39.5228 21.687 37.8352 25.3256 36.0306C29.5685 33.9251 33.7993 31.7834 37.924 29.4746C40.6287 27.9601 43.0297 25.9684 44.6969 23.3831C46.315 20.8728 47.7537 18.2494 49.1515 15.6175C49.8125 14.3744 50.1949 12.9945 50.7035 11.6763C50.5555 11.6123 50.4076 11.5483 50.2591 11.4842C49.4978 12.808 48.6879 14.1086 47.9856 15.4604C46.8745 17.599 45.6282 19.6079 43.4514 20.9322C42.5642 21.4718 41.7643 22.1583 40.8411 22.6269C35.1103 25.5329 29.3377 28.3636 23.6146 31.2844C19.1521 33.5615 15.2942 36.4831 13.0362 41.0345C12.3315 42.4544 11.5711 43.8487 10.6871 45.1734C9.77879 46.5331 9.1144 47.9603 8.68039 49.4286C8.50462 50.0246 8.2172 51.0049 8.13192 52.2564C7.98299 54.4422 8.5384 56.119 8.88754 57.1412C9.81321 59.8487 11.2637 61.6238 12.269 62.8308C12.6423 63.2795 14.3865 65.3415 17.3081 67.3128C18.9559 68.4243 20.3597 69.0899 21.1275 69.4498C23.1133 70.3814 24.7066 70.8778 26.1418 71.317C27.036 71.5907 28.8207 72.1076 31.1546 72.5573C32.6514 72.8461 34.833 73.2576 37.6913 73.3761C41.1618 73.52 43.7983 73.1557 45.3138 72.9389C47.3574 72.6467 49.9347 72.1353 52.8307 71.1993C52.8307 71.1993 62.1715 68.1503 73.5318 59.5629C73.913 59.2749 74.1652 59.0786 74.2737 58.9961C75.7934 57.8465 78.3839 55.682 79.8822 52.309C80.8181 50.2015 80.9495 48.4346 80.976 47.9929C81.0578 46.6415 81.2128 44.0563 79.5195 42.3972C79.0021 41.89 78.5113 41.5374 77.3635 41.1913C74.0387 40.1883 70.6923 39.2492 67.3364 38.3469C65.8323 37.9422 64.2824 37.6941 62.7528 37.3747C63.1216 36.9671 63.4864 36.7693 63.8743 36.6315C70.7653 34.1868 77.6595 31.7526 84.5498 29.306C85.1135 29.1065 85.4662 29.1853 85.7617 29.7378C86.2102 30.5782 86.7456 31.3767 87.2465 32.1918C87.3661 32.1602 87.3526 32.164 87.4728 32.133L87.4637 28.343C90.8095 27.3997 94.1942 26.4581 97.5655 25.4761C97.8998 25.3783 98.3174 25.084 98.4197 24.7924C99.0569 22.9685 99.6487 21.1281 100.173 19.2719C100.277 18.903 100.173 18.3138 99.9163 18.0421Z" fill="white"/>
<path d="M39.7138 84.8211L34.3539 89.9864L28.9694 84.8485L34.3292 79.6833L39.7138 84.8211Z" fill="white"/>
<path d="M52.6971 84.7914L47.3373 89.9566L41.9527 84.8188L47.3126 79.6535L52.6971 84.7914Z" fill="white"/>
</g>
<defs>
<filter id="filter0_d_145_15" x="0.107086" y="0.0384521" width="112.106" height="101.948" filterUnits="userSpaceOnUse" color-interpolation-filters="sRGB">
<feFlood flood-opacity="0" result="BackgroundImageFix"/>
<feColorMatrix in="SourceAlpha" type="matrix" values="0 0 0 0 0 0 0 0 0 0 0 0 0 0 0 0 0 0 127 0" result="hardAlpha"/>
<feOffset dx="2" dy="2"/>
<feGaussianBlur stdDeviation="5"/>
<feComposite in2="hardAlpha" operator="out"/>
<feColorMatrix type="matrix" values="0 0 0 0 0 0 0 0 0 0 0 0 0 0 0 0 0 0 0.3 0"/>
<feBlend mode="normal" in2="BackgroundImageFix" result="effect1_dropShadow_145_15"/>
<feBlend mode="normal" in="SourceGraphic" in2="effect1_dropShadow_145_15" result="shape"/>
</filter>
</defs>
</svg>
